<?xml version="1.0" encoding="UTF-8"?>
<!DOCTYPE svg PUBLIC "-//W3C//DTD SVG 1.1//EN" "http://www.w3.org/Graphics/SVG/1.1/DTD/svg11.dtd">
<!-- Creator: CorelDRAW X7 -->
<svg xmlns="http://www.w3.org/2000/svg" xml:space="preserve" width="85px" height="60px" version="1.1" style="shape-rendering:geometricPrecision; text-rendering:geometricPrecision; image-rendering:optimizeQuality; fill-rule:evenodd; clip-rule:evenodd"
viewBox="0 0 850 598"
 xmlns:xlink="http://www.w3.org/1999/xlink">
 <defs>
  <style type="text/css">
   <![CDATA[
    .fil1 {fill:#A9CF45;fill-rule:nonzero}
    .fil0 {fill:#4F5B64;fill-rule:nonzero}
   ]]>
  </style>
 </defs>
 <g id="Layer_x0020_1">
  <metadata id="CorelCorpID_0Corel-Layer"/>
  <path class="fil0" d="M377 153l-37 -73 -1 24c-1,7 -1,14 -1,21 -1,7 -1,14 -2,20 -1,7 -2,13 -4,18 -2,6 -4,10 -7,14 -4,4 -8,7 -13,10 -6,2 -12,3 -20,3 -3,0 -7,0 -10,-1 -3,-1 -6,-1 -8,-2 -3,-1 -5,-3 -6,-4 -2,-1 -2,-3 -2,-5 0,-1 0,-2 0,-3 0,-1 1,-3 2,-4 0,-1 1,-2 2,-2 1,-1 2,-1 3,-1 1,0 2,0 2,1 1,1 2,2 2,3 1,1 1,2 2,3 1,2 2,3 3,4 2,1 3,2 5,3 2,1 4,1 6,1 6,0 10,-1 14,-3 3,-2 6,-4 8,-8 3,-3 5,-7 6,-12 1,-5 2,-10 3,-16 0,-4 0,-7 0,-10 1,-3 1,-6 1,-10 0,-3 1,-6 1,-9 0,-3 0,-7 1,-10 0,-6 0,-11 1,-15 0,-5 0,-9 0,-14 0,-4 1,-7 1,-11 0,-3 0,-6 0,-8 -1,-2 -2,-4 -3,-6 -1,-1 -2,-2 -3,-3 -1,-1 -2,-1 -3,-2 -1,0 -3,0 -4,0 -2,0 -3,0 -5,1 -2,0 -4,1 -6,2 -3,1 -5,2 -7,3 -2,2 -4,3 -6,5 -1,2 -3,4 -4,6 -1,2 -1,5 -1,7 0,2 0,4 1,5 0,2 1,3 2,3 0,1 1,1 2,1 1,1 1,1 2,1 1,0 3,-1 4,-1 1,-1 2,-1 3,-2 1,-1 1,-1 2,-2 1,0 2,-1 3,-1 1,0 2,0 3,1 0,0 1,1 2,2 1,0 2,2 2,3 1,1 1,3 1,5 0,2 -1,5 -2,7 -1,2 -2,3 -4,5 -1,1 -3,2 -5,3 -3,0 -5,1 -7,1 -3,0 -6,-1 -9,-2 -2,-1 -4,-3 -6,-5 -2,-2 -4,-4 -4,-7 -1,-2 -2,-5 -2,-8 0,-7 2,-13 5,-19 3,-5 8,-9 13,-13 5,-3 11,-6 18,-8 7,-1 13,-2 20,-2 6,0 11,0 14,1 4,2 7,3 10,5 2,2 4,4 6,6 1,3 3,6 4,8l27 55c7,-14 14,-26 19,-37 6,-11 11,-21 16,-29 5,-8 10,-15 14,-21 4,-6 8,-11 12,-14 4,-4 8,-7 12,-8 4,-2 8,-3 12,-3 4,0 7,1 9,2 2,2 3,4 3,7 0,3 0,5 -1,7 -1,2 -2,3 -4,3 -1,0 -2,-1 -2,-2 -1,-1 -2,-2 -2,-3 -1,-1 -2,-2 -3,-3 -1,-1 -2,-2 -4,-2 -1,0 -2,0 -4,1 -2,1 -3,2 -5,3 -2,1 -3,3 -5,4 -1,2 -3,4 -4,7 -1,2 -2,5 -3,8 -1,3 -1,7 -1,11 1,4 1,9 2,15 0,5 1,11 1,18 1,7 1,13 2,20 1,7 1,14 2,21 1,7 1,13 2,20 1,6 1,11 2,17 0,5 1,9 1,12 1,4 1,6 1,8 1,2 1,3 2,4 1,2 2,2 4,2 2,0 3,0 5,-1 2,0 3,-1 4,-2l2 4c-1,1 -3,2 -5,3 -2,1 -4,2 -6,3 -3,1 -5,2 -8,3 -3,0 -6,1 -9,1 -5,0 -9,-1 -12,-2 -2,-1 -4,-3 -6,-4 -1,-2 -2,-4 -3,-6 0,-2 -1,-4 -1,-5 -1,-4 -1,-8 -2,-13 -1,-5 -1,-10 -2,-15 -1,-6 -1,-12 -2,-18 0,-6 -1,-12 -1,-17 -1,-6 -1,-11 -2,-16 0,-5 -1,-10 -1,-13 -2,3 -4,6 -5,9 -2,3 -4,6 -6,10 -1,3 -3,6 -5,10 -1,3 -3,7 -5,11 -2,4 -4,9 -6,14 -2,5 -5,10 -7,17l-10 0z"/>
  <path id="1" class="fil0" d="M573 99c0,13 -1,25 -4,36 -2,12 -5,23 -10,33 -4,10 -9,19 -15,28 -6,8 -12,15 -19,21 -7,6 -14,11 -22,14 -7,4 -15,5 -23,5 -6,0 -10,-1 -14,-3 -3,-2 -4,-4 -4,-8 0,-1 0,-2 0,-4 1,-1 1,-2 2,-3 0,-1 1,-2 2,-2 1,-1 2,-1 3,-1 2,0 3,1 3,2 1,1 2,3 3,4 1,2 2,3 4,4 1,2 3,2 5,2 3,0 7,0 10,-1 3,-1 7,-3 10,-5 3,-2 7,-4 10,-7 3,-3 7,-6 10,-9 -2,-7 -4,-15 -7,-23 -2,-8 -5,-16 -7,-24 -3,-9 -6,-17 -9,-24 -3,-8 -6,-15 -8,-21 -3,-5 -6,-10 -8,-14 -3,-3 -5,-5 -7,-5 -1,0 -2,0 -3,0 -1,1 -2,2 -3,2l-2 -2c2,-1 3,-3 5,-4 1,-1 3,-2 5,-3 2,-1 4,-2 7,-3 3,0 6,-1 10,-1 4,0 8,1 11,3 4,2 7,5 10,10 2,4 4,9 7,14 2,5 4,11 7,17 2,7 4,14 7,21 2,8 4,16 7,24 4,-9 7,-18 10,-28 2,-10 4,-20 4,-31 0,-3 -1,-7 -1,-9 -1,-3 -1,-5 -2,-7 0,-2 -1,-3 -1,-5 -1,-1 -1,-2 -1,-3 0,-1 0,-2 1,-3 1,-1 2,-1 3,-2 1,0 3,0 4,0 1,-1 2,-1 3,-1 2,0 3,1 4,1 1,1 2,2 2,4 1,1 1,3 1,5 0,2 0,4 0,6z"/>
  <path id="2" class="fil1" d="M111 332c2,-4 3,-9 5,-13 1,-5 3,-10 5,-15 1,-4 3,-9 4,-14 2,-6 3,-11 4,-15l-10 -33c-1,-2 0,-4 0,-6 1,-1 2,-3 4,-4 2,-1 4,-2 6,-2 2,-1 5,-1 7,-1 3,0 5,0 7,0 1,0 3,1 4,1 1,1 3,2 3,3 1,1 2,3 3,4l29 95c1,-5 3,-9 5,-14 1,-5 3,-10 5,-15 1,-5 3,-11 4,-16 2,-5 3,-10 4,-15 1,-6 2,-10 3,-15 1,-5 1,-9 1,-13 0,-4 0,-8 -1,-11 -1,-3 -1,-6 -2,-8 -1,-2 -2,-3 -2,-5 -1,-1 -1,-2 -1,-3 0,-2 0,-3 1,-4 1,-1 2,-2 3,-2 1,-1 2,-1 4,-2 1,0 2,0 4,0 2,0 5,0 7,1 1,1 3,2 3,4 1,1 1,2 1,3 0,2 1,3 1,4 0,1 0,2 0,3 0,1 0,1 0,2 0,3 -1,7 -1,12 -1,5 -3,10 -4,16 -2,7 -4,13 -6,20 -2,7 -4,15 -6,22 -2,7 -4,14 -7,21 -2,7 -4,14 -6,19 -2,6 -4,11 -5,16 -2,4 -3,8 -4,10 0,1 -1,3 -2,4 -1,1 -2,1 -3,2 -1,0 -3,1 -4,1 -2,0 -3,0 -4,0 -3,0 -5,0 -7,-1 -2,0 -3,-1 -4,-2 -1,-1 -2,-1 -3,-2 0,-1 0,-2 -1,-3l-20 -67c-2,8 -4,15 -7,22 -2,7 -4,14 -6,20 -2,6 -4,11 -6,16 -2,4 -3,8 -4,10 0,1 -1,3 -2,4 -1,1 -2,1 -3,2 -2,0 -3,1 -4,1 -2,0 -3,0 -4,0 -3,0 -5,0 -7,-1 -2,0 -3,-1 -4,-2 -1,-1 -2,-1 -3,-2 0,-1 0,-2 -1,-3l-36 -121c-1,-3 -1,-5 -2,-6 -1,-2 -2,-3 -3,-4 -1,-1 -3,-2 -4,-2 -2,-1 -4,-1 -6,-1 -2,0 -4,0 -7,1 -2,1 -4,3 -7,4 -2,2 -4,4 -6,7 -1,3 -2,6 -2,9 0,3 0,4 1,6 1,1 1,2 2,3 1,0 1,1 2,1 1,0 2,0 2,0 2,0 3,0 4,-1 1,0 2,-1 3,-2 1,0 2,-1 3,-1 0,-1 1,-1 2,-1 1,0 2,0 3,0 1,1 2,1 2,2 1,1 2,2 2,3 1,2 1,3 1,5 0,3 0,5 -1,7 -1,2 -3,4 -4,5 -2,1 -4,2 -6,3 -2,1 -4,1 -7,1 -3,0 -6,-1 -8,-2 -3,-1 -5,-2 -7,-4 -1,-2 -3,-5 -4,-7 -1,-3 -1,-6 -1,-9 0,-7 1,-13 4,-18 3,-6 6,-10 11,-13 4,-4 9,-7 15,-8 6,-2 12,-3 18,-3 7,0 12,1 17,3 4,2 7,5 10,8 3,3 5,7 6,11 2,4 3,8 5,12l25 83z"/>
  <path id="3" class="fil1" d="M257 321c0,2 0,4 1,7 1,2 1,5 3,7 1,3 2,5 4,8 2,2 4,4 6,6 3,2 5,3 8,4 3,2 6,2 10,2 2,0 4,0 6,-1 2,0 4,-1 6,-2 2,-1 3,-2 5,-3 2,-2 3,-3 5,-4l2 2c-1,2 -3,5 -6,7 -2,3 -5,5 -8,7 -4,2 -8,4 -13,6 -4,1 -9,2 -15,2 -6,0 -12,-1 -18,-3 -5,-2 -10,-6 -15,-10 -4,-4 -7,-10 -10,-16 -3,-6 -4,-14 -4,-22 0,-7 1,-12 2,-17 2,-6 4,-10 7,-14 2,-5 6,-8 9,-11 4,-3 7,-6 11,-8 4,-2 8,-4 12,-5 5,-1 9,-1 12,-1 5,0 10,0 14,1 3,1 6,3 9,5 2,1 4,4 5,6 2,2 2,5 2,8 0,3 -1,6 -3,8 -1,3 -4,5 -7,7l-40 24zm20 -21c1,-1 2,-1 3,-2 0,0 1,-1 1,-1 0,-1 1,-2 1,-3 0,-1 0,-2 0,-4 0,-2 0,-4 -1,-6 0,-2 -1,-4 -2,-6 0,-1 -1,-3 -3,-4 -1,-1 -3,-2 -5,-2 -2,0 -4,1 -6,2 -2,2 -3,4 -4,6 -1,2 -2,5 -3,8 -1,3 -1,6 -1,9 -1,3 -1,6 -1,8 0,3 0,5 0,7l21 -12z"/>
  <path id="4" class="fil1" d="M385 317c0,-6 -1,-12 -1,-17 -1,-5 -2,-10 -3,-14 -2,-4 -3,-7 -5,-9 -3,-2 -5,-3 -8,-3 -2,0 -4,0 -6,1 -2,1 -3,3 -4,4 -1,2 -2,3 -2,4 -1,2 -1,3 -1,3l0 31c0,14 1,25 4,32 2,7 6,10 11,10 5,0 9,-3 11,-10 2,-7 4,-18 4,-32zm-61 -90c0,-2 -1,-4 -2,-5 0,-2 -2,-3 -4,-3 -1,0 -2,1 -3,1 -1,0 -2,1 -3,2l-2 -3c2,-1 3,-2 5,-4 2,-1 4,-2 7,-3 2,-1 4,-2 7,-2 2,-1 5,-1 8,-1 4,0 7,0 9,2 3,1 5,2 6,4 1,2 2,4 2,6 1,2 1,3 1,5l0 46c1,-1 2,-2 3,-3 2,-1 3,-2 5,-4 2,-1 5,-1 7,-2 3,-1 6,-1 10,-1 4,0 9,1 13,3 4,2 8,5 12,9 3,4 6,10 8,17 2,6 3,14 3,24 0,7 -1,14 -3,21 -2,6 -5,12 -8,17 -4,5 -9,9 -15,12 -6,3 -13,4 -21,4 -8,0 -15,-1 -21,-4 -6,-3 -11,-7 -14,-11 -4,-5 -6,-10 -8,-16 -1,-7 -2,-13 -2,-20l0 -91z"/>
  <path id="5" class="fil1" d="M469 270c-2,0 -3,0 -5,0 -1,1 -2,1 -3,2 -1,1 -2,2 -3,4 0,1 -1,3 -1,5 0,2 1,5 3,8 2,2 5,5 7,8 3,3 6,6 10,9 3,3 6,6 9,9 3,4 5,7 7,11 2,4 3,8 3,12 0,5 -1,9 -2,13 -2,4 -4,7 -7,10 -3,3 -7,5 -12,6 -4,1 -9,2 -14,2 -5,0 -9,-1 -13,-2 -4,-1 -7,-3 -10,-5 -3,-2 -6,-4 -8,-6 -2,-2 -3,-4 -5,-6l4 -2c1,1 2,2 3,3 2,1 3,2 5,3 2,1 3,2 5,3 2,0 4,1 6,1 5,0 9,-2 12,-4 3,-2 5,-6 5,-10 0,-3 -1,-6 -3,-8 -1,-3 -4,-6 -6,-9 -3,-3 -6,-6 -9,-9 -3,-3 -5,-6 -8,-10 -2,-3 -5,-6 -6,-10 -2,-3 -3,-7 -3,-11 0,-4 1,-8 3,-11 1,-3 4,-6 7,-8 3,-2 6,-4 10,-5 3,-1 7,-1 11,-1 5,0 9,0 12,1 4,1 7,2 10,4 3,1 5,3 6,6 2,2 3,5 3,9 0,2 -1,4 -3,6 -2,2 -4,3 -7,3 -3,0 -5,0 -7,-2 -1,-1 -2,-3 -2,-5 0,-1 0,-2 1,-3 1,-1 1,-2 2,-2 1,-1 2,-1 3,-2 0,0 1,0 1,-1 0,-2 -1,-3 -3,-5 -2,-1 -5,-1 -8,-1z"/>
  <path id="6" class="fil1" d="M546 270l0 76c0,3 1,6 2,7 2,2 4,2 6,2 2,0 3,0 5,-1 1,-1 2,-2 3,-4 2,-1 3,-3 4,-5l3 2c-1,2 -2,4 -4,7 -1,2 -3,5 -5,7 -3,2 -6,4 -9,6 -4,1 -8,2 -13,2 -3,0 -6,-1 -9,-1 -3,-1 -5,-3 -7,-5 -2,-2 -4,-4 -5,-7 -2,-3 -2,-6 -2,-10l0 -76 -12 0 0 -7c2,0 5,0 8,-1 4,-1 7,-3 11,-5 3,-3 7,-6 10,-10 3,-4 5,-8 6,-14l8 0 0 30 17 0c5,0 8,-1 8,-3 0,0 0,-1 -1,-1 -1,0 -1,-1 -2,-1 -1,0 -2,-1 -3,-2 0,0 -1,-1 -1,-3 0,-2 1,-3 2,-4 1,-1 3,-2 5,-2 1,0 2,0 3,1 1,0 2,1 2,2 1,1 1,2 2,3 0,1 0,2 0,3 0,4 -1,8 -4,10 -2,3 -6,4 -12,4l-16 0z"/>
  <path id="7" class="fil1" d="M575 315c0,-9 1,-16 4,-23 2,-7 6,-12 10,-17 5,-4 10,-8 15,-10 6,-2 12,-3 18,-3 6,0 12,1 18,3 6,2 11,5 15,9 4,5 8,10 10,17 3,6 4,14 4,23 0,9 -1,17 -4,23 -2,7 -6,13 -10,18 -4,4 -9,8 -15,10 -6,3 -12,4 -18,4 -6,0 -12,-1 -18,-3 -5,-3 -10,-6 -15,-10 -4,-5 -8,-11 -10,-17 -3,-7 -4,-15 -4,-24zm63 -1c0,-5 -1,-10 -1,-16 0,-5 -1,-9 -2,-13 -1,-4 -3,-7 -5,-9 -2,-3 -4,-4 -8,-4 -3,0 -6,1 -8,4 -2,2 -3,5 -5,10 -1,4 -1,8 -2,13 0,5 0,11 0,16 0,6 0,11 0,16 1,5 1,10 2,14 2,4 3,7 5,10 2,2 5,4 8,4 4,0 6,-2 8,-4 2,-3 4,-6 5,-10 1,-5 2,-9 2,-15 0,-5 1,-10 1,-16z"/>
  <path id="8" class="fil1" d="M721 283c3,-4 5,-7 8,-11 1,-1 3,-2 4,-4 2,-1 3,-2 5,-3 1,-1 3,-2 4,-2 2,-1 4,-1 5,-1 4,0 6,1 8,3 2,2 3,5 3,8 0,3 0,5 0,7 -1,2 -1,5 -2,8l-3 0c-1,-2 -2,-4 -3,-5 -2,-2 -4,-2 -7,-2 -2,0 -4,0 -6,1 -2,1 -4,2 -6,3 -2,1 -4,2 -5,3 -2,2 -4,3 -5,4l0 66c0,1 0,2 0,4 -1,1 -1,2 -2,3 -1,1 -3,2 -5,3 -2,1 -5,1 -9,1 -3,0 -6,0 -8,-1 -2,-1 -4,-2 -5,-3 -1,-1 -2,-3 -2,-4 0,-1 0,-2 0,-3l0 -78c0,-2 -1,-4 -2,-6 -1,-1 -2,-2 -4,-2 -2,0 -2,0 -3,1 -1,0 -2,1 -3,2l-2 -3c1,-1 3,-3 5,-4 2,-1 4,-2 6,-3 3,-1 5,-2 8,-2 2,-1 5,-1 8,-1 3,0 5,0 7,1 2,1 4,2 5,3 2,1 3,3 3,4 1,2 2,3 2,5 1,1 1,3 1,4 0,2 0,3 0,4z"/>
  <path id="9" class="fil1" d="M793 321c0,2 1,4 1,7 1,2 2,5 3,7 1,3 3,5 5,8 2,2 4,4 6,6 2,2 5,3 8,4 3,2 6,2 9,2 3,0 5,0 7,-1 2,0 4,-1 5,-2 2,-1 4,-2 6,-3 1,-2 3,-3 4,-4l3 2c-2,2 -4,5 -6,7 -2,3 -5,5 -9,7 -3,2 -7,4 -12,6 -5,1 -10,2 -16,2 -6,0 -11,-1 -17,-3 -6,-2 -11,-6 -15,-10 -4,-4 -8,-10 -10,-16 -3,-6 -4,-14 -4,-22 0,-7 0,-12 2,-17 2,-6 4,-10 6,-14 3,-5 6,-8 10,-11 3,-3 7,-6 11,-8 4,-2 8,-4 12,-5 4,-1 8,-1 12,-1 5,0 9,0 13,1 4,1 7,3 9,5 3,1 5,4 6,6 1,2 2,5 2,8 0,3 -1,6 -3,8 -2,3 -4,5 -7,7l-41 24zm21 -21c1,-1 2,-1 2,-2 1,0 1,-1 2,-1 0,-1 0,-2 0,-3 0,-1 1,-2 1,-4 0,-2 -1,-4 -1,-6 0,-2 -1,-4 -2,-6 -1,-1 -2,-3 -3,-4 -2,-1 -3,-2 -5,-2 -3,0 -5,1 -6,2 -2,2 -4,4 -5,6 -1,2 -2,5 -2,8 -1,3 -2,6 -2,9 0,3 0,6 0,8 -1,3 -1,5 -1,7l22 -12z"/>
  <path id="10" class="fil0" d="M211 561c3,0 5,-1 8,-2 3,-1 5,-3 7,-5 2,-2 4,-5 5,-9 1,-3 2,-8 2,-13 0,-6 -1,-11 -4,-17 -3,-5 -6,-10 -11,-16 -4,-5 -9,-10 -13,-15 -5,-5 -10,-11 -14,-16 -4,-5 -8,-11 -11,-16 -3,-6 -4,-12 -4,-18 0,-6 1,-12 3,-17 3,-5 6,-9 10,-13 4,-3 8,-6 13,-8 5,-2 11,-3 17,-3 6,0 12,1 17,2 5,2 9,4 12,6 4,2 6,5 8,8 2,3 3,6 3,10 0,1 0,3 -1,5 0,1 -1,3 -2,4 -1,2 -2,3 -4,4 -2,1 -3,1 -6,1 -2,0 -4,0 -5,-2 -1,-1 -2,-3 -3,-5 0,-3 -1,-5 -1,-8 -1,-3 -1,-5 -2,-7 -1,-3 -2,-4 -4,-6 -2,-1 -4,-2 -8,-2 -2,0 -4,0 -5,1 -2,1 -4,2 -5,4 -2,1 -3,4 -4,6 -1,3 -1,6 -1,9 0,4 1,8 3,12 1,4 3,8 6,12 3,3 6,7 10,11 3,4 7,8 11,11 3,4 7,8 11,12 3,4 6,8 9,13 3,4 5,9 7,13 2,5 2,10 2,15 0,8 -1,15 -4,21 -3,6 -7,11 -12,15 -5,4 -11,7 -18,10 -7,2 -14,3 -22,3 -7,0 -13,-1 -18,-3 -5,-1 -10,-4 -13,-7 -4,-2 -7,-6 -9,-9 -2,-4 -3,-8 -3,-12 0,-1 1,-3 1,-5 1,-2 1,-3 2,-5 1,-2 3,-3 4,-4 2,-1 3,-2 5,-2 2,0 4,1 5,2 2,1 3,2 3,4 1,2 2,4 2,6 1,2 1,4 2,7 0,2 1,4 2,6 1,2 2,4 3,6 1,2 3,3 6,4 2,1 5,2 8,2z"/>
  <path id="11" class="fil0" d="M288 458c0,-2 -1,-4 -2,-5 0,-2 -2,-2 -4,-2 -1,0 -2,0 -3,0 -1,1 -2,1 -3,2l-2 -3c2,-1 3,-2 5,-3 2,-2 4,-3 7,-4 2,-1 4,-1 7,-2 2,-1 5,-1 8,-1 3,0 6,0 8,1 2,1 4,2 5,4 2,1 3,3 4,4 0,1 1,3 1,4 1,-2 3,-4 5,-5 2,-2 4,-3 6,-5 2,-1 4,-1 7,-2 2,-1 5,-1 8,-1 5,0 10,1 14,3 5,3 9,6 12,10 3,5 5,10 7,17 2,6 3,14 3,22 0,10 -1,19 -3,26 -3,7 -5,12 -9,17 -3,4 -7,7 -11,9 -4,2 -9,3 -13,3 -4,0 -7,0 -10,-1 -3,0 -5,-1 -7,-2 -3,-2 -4,-3 -6,-4 -1,-1 -2,-2 -3,-3l0 50c0,1 0,2 0,3 -1,2 -1,3 -2,4 -1,1 -3,2 -5,3 -2,1 -5,1 -8,1 -4,0 -7,0 -9,-1 -2,-1 -4,-2 -5,-3 -1,-2 -1,-3 -2,-4 0,-1 0,-2 0,-3l0 -129zm31 65c0,0 0,1 1,3 0,1 1,2 2,4 1,1 2,3 4,4 2,1 4,1 6,1 3,0 5,-1 8,-3 2,-2 3,-5 5,-9 1,-4 2,-9 3,-14 0,-5 1,-11 1,-17 0,-7 -1,-13 -2,-18 0,-5 -1,-9 -3,-12 -1,-3 -3,-6 -5,-7 -2,-1 -5,-2 -7,-2 -2,0 -3,0 -5,1 -1,1 -3,2 -4,3 -1,2 -2,3 -3,5 0,1 -1,3 -1,4l0 57z"/>
  <path id="12" class="fil0" d="M446 493c0,-2 -1,-3 -2,-4 -1,-1 -2,-1 -4,-1 -2,0 -5,0 -7,1 -2,1 -4,3 -5,5 -2,2 -3,5 -4,8 -1,3 -2,7 -2,11 0,4 1,7 1,10 1,2 2,4 3,6 0,1 2,2 3,3 1,1 3,1 4,1 2,0 3,-1 5,-2 2,0 3,-2 4,-3 1,-1 2,-3 3,-5 1,-2 1,-3 1,-5l0 -25zm-16 -45c-3,0 -5,1 -7,1 -2,1 -3,1 -5,2 -1,1 -2,2 -3,3 -1,1 -1,2 -1,3 0,1 0,1 1,2 1,0 2,1 4,1 1,1 2,2 3,3 1,1 2,3 2,5 0,1 -1,2 -1,4 -1,1 -1,2 -2,3 -1,1 -3,1 -4,2 -1,0 -3,1 -4,1 -4,0 -7,-2 -9,-4 -3,-3 -4,-6 -4,-10 0,-5 1,-8 3,-11 3,-3 5,-6 9,-7 3,-2 7,-4 12,-5 4,-1 9,-1 13,-1 5,0 10,1 15,2 5,1 9,3 13,5 4,3 7,6 9,10 2,4 3,8 3,14l0 57c0,1 0,2 0,3 0,0 1,1 1,2 0,0 1,1 1,1 1,0 1,1 2,1 2,0 3,-1 4,-2 1,-1 2,-2 3,-3l2 3c-1,1 -2,3 -3,4 -2,2 -4,4 -6,5 -2,2 -4,3 -7,4 -3,1 -6,1 -9,1 -4,0 -8,-1 -12,-3 -3,-3 -5,-7 -6,-12 -2,3 -4,5 -7,7 -2,2 -5,4 -7,5 -2,1 -5,2 -7,3 -3,0 -5,0 -8,0 -3,0 -6,0 -9,-1 -3,-1 -6,-3 -9,-5 -2,-2 -4,-5 -5,-9 -2,-3 -3,-7 -3,-13 0,-6 2,-11 4,-15 3,-4 6,-7 10,-10 4,-2 8,-5 13,-7 5,-1 11,-3 16,-6 4,-1 7,-3 8,-7 2,-3 3,-6 3,-9 0,-5 -1,-9 -4,-12 -3,-3 -7,-5 -12,-5z"/>
  <path id="13" class="fil0" d="M569 475c-2,0 -4,0 -6,-1 -1,0 -2,-1 -3,-2 -1,-1 -2,-3 -2,-4 0,-1 -1,-3 -1,-4 0,-2 0,-4 1,-5 0,-2 0,-4 0,-5 0,-1 -1,-2 -2,-3 -1,-1 -2,-1 -4,-1 -3,0 -5,0 -8,2 -3,1 -5,3 -7,6 -2,3 -4,7 -6,11 -1,5 -2,10 -2,17 0,7 1,13 2,19 2,6 4,11 6,15 3,5 6,8 10,10 4,2 9,3 14,3 2,0 5,0 7,0 2,-1 4,-2 6,-3 2,-1 3,-2 5,-3 2,-1 4,-3 5,-4l3 2c-2,3 -4,5 -6,7 -3,3 -6,5 -9,8 -4,2 -8,4 -12,5 -5,1 -10,2 -16,2 -6,0 -12,-1 -17,-3 -6,-3 -11,-6 -15,-10 -5,-5 -8,-10 -11,-16 -2,-6 -4,-13 -4,-21 0,-6 1,-12 3,-17 1,-6 3,-10 6,-14 3,-5 6,-8 10,-12 3,-3 7,-5 11,-8 4,-2 8,-3 12,-4 4,-1 8,-2 12,-2 5,0 9,1 13,2 4,1 7,2 9,4 3,2 5,4 6,7 1,2 2,5 2,8 0,2 -1,3 -1,5 -1,2 -1,4 -2,5 -1,1 -3,2 -4,3 -2,1 -3,1 -5,1z"/>
  <path id="14" class="fil0" d="M627 499c0,2 0,5 1,7 0,3 1,5 3,8 1,2 2,5 4,7 2,3 4,5 6,6 3,2 5,4 8,5 3,1 6,1 10,1 2,0 4,0 6,0 2,-1 4,-2 6,-3 2,-1 3,-2 5,-3 2,-1 3,-3 5,-4l2 2c-1,3 -3,5 -6,7 -2,3 -5,5 -8,8 -4,2 -8,4 -13,5 -4,1 -9,2 -15,2 -6,0 -12,-1 -18,-3 -5,-2 -10,-5 -15,-10 -4,-4 -7,-9 -10,-16 -3,-6 -4,-14 -4,-22 0,-6 1,-12 2,-17 2,-5 4,-10 7,-14 2,-4 6,-8 9,-11 4,-3 7,-6 11,-8 4,-2 8,-3 12,-4 5,-2 9,-2 12,-2 5,0 10,1 14,2 3,1 6,2 9,4 2,2 4,4 5,6 2,3 2,5 2,8 0,3 -1,6 -3,9 -1,2 -4,4 -7,6l-40 24zm20 -21c1,0 2,-1 3,-1 0,-1 1,-1 1,-2 0,-1 1,-2 1,-3 0,-1 0,-2 0,-4 0,-1 0,-3 -1,-5 0,-2 -1,-4 -2,-6 0,-2 -2,-4 -3,-5 -1,-1 -3,-2 -5,-2 -2,0 -4,1 -6,3 -2,1 -3,3 -4,5 -1,3 -2,5 -3,8 -1,3 -1,6 -1,9 -1,3 -1,6 -1,9 0,2 0,5 0,7l21 -13z"/>
 </g>
</svg>
