<?xml version="1.0" encoding="UTF-8"?>
<!DOCTYPE svg PUBLIC "-//W3C//DTD SVG 1.1//EN" "http://www.w3.org/Graphics/SVG/1.1/DTD/svg11.dtd">
<!-- Creator: CorelDRAW X7 -->
<svg xmlns="http://www.w3.org/2000/svg" xml:space="preserve" width="162px" height="30px" version="1.1" style="shape-rendering:geometricPrecision; text-rendering:geometricPrecision; image-rendering:optimizeQuality; fill-rule:evenodd; clip-rule:evenodd"
viewBox="0 0 1620 299"
 xmlns:xlink="http://www.w3.org/1999/xlink">
 <defs>
  <style type="text/css">
   <![CDATA[
    .fil1 {fill:#A9CF45}
    .fil0 {fill:#4F5B64;fill-rule:nonzero}
   ]]>
  </style>
 </defs>
 <g id="Layer_x0020_1">
  <metadata id="CorelCorpID_0Corel-Layer"/>
  <g id="_869618168">
   <path class="fil0" d="M287 193l-47 -92 -2 31c0,9 -1,18 -1,27 0,9 -1,17 -2,25 -1,8 -3,16 -5,23 -2,7 -5,12 -10,18 -4,5 -9,8 -16,11 -6,3 -15,5 -25,5 -4,0 -8,-1 -12,-1 -4,-1 -8,-2 -11,-4 -3,-1 -6,-2 -8,-4 -1,-2 -2,-4 -2,-6 0,-1 0,-3 0,-5 1,-1 1,-3 2,-4 1,-1 2,-2 3,-3 2,-1 3,-1 5,-1 1,0 1,0 2,1 1,1 2,2 2,4 1,1 2,2 3,4 1,2 2,3 4,5 1,1 3,2 6,3 2,1 5,2 8,2 7,0 12,-1 17,-4 4,-2 8,-5 11,-10 3,-4 5,-9 7,-15 1,-6 2,-13 3,-21 0,-4 1,-9 1,-12 1,-4 1,-8 1,-12 1,-4 1,-8 1,-12 0,-5 1,-9 1,-14 1,-6 1,-12 1,-18 1,-6 1,-12 1,-17 0,-5 1,-10 1,-14 0,-4 0,-8 0,-11 -2,-3 -3,-5 -4,-7 -1,-2 -2,-3 -3,-4 -2,-1 -3,-2 -4,-2 -2,-1 -4,-1 -6,-1 -1,0 -4,0 -6,1 -3,1 -5,2 -8,3 -3,1 -5,3 -8,4 -3,2 -5,4 -7,6 -2,3 -4,5 -5,8 -2,3 -2,6 -2,9 0,3 0,5 1,6 0,2 1,3 2,4 1,1 2,1 3,2 1,0 2,0 2,0 2,0 4,0 6,-1 1,-1 2,-2 3,-2 1,-1 2,-2 4,-3 0,0 2,-1 3,-1 1,0 2,0 3,1 1,0 2,1 3,2 1,1 2,3 3,4 1,2 1,4 1,6 0,4 -1,7 -2,9 -1,3 -3,5 -5,6 -2,2 -5,3 -7,4 -3,1 -6,1 -8,1 -5,0 -8,0 -12,-2 -3,-1 -6,-3 -8,-6 -2,-2 -4,-5 -5,-8 -2,-4 -2,-7 -2,-11 0,-9 2,-17 6,-23 4,-7 10,-13 16,-17 7,-5 15,-8 23,-10 9,-2 17,-3 26,-3 7,0 13,0 18,2 4,1 8,3 12,5 3,3 5,5 7,9 2,3 4,6 6,10l34 69c9,-18 17,-33 24,-47 8,-14 14,-26 21,-36 6,-11 12,-20 17,-27 5,-8 11,-14 16,-18 5,-5 10,-9 15,-11 4,-2 10,-3 15,-3 5,0 8,1 11,3 3,2 4,5 4,9 0,3 0,6 -1,8 -1,2 -3,4 -5,4 -2,0 -3,-1 -4,-2 -1,-2 -1,-3 -2,-4 -1,-2 -2,-3 -3,-4 -1,-2 -3,-2 -6,-2 -1,0 -3,0 -5,1 -2,1 -4,2 -6,3 -2,2 -4,4 -6,6 -2,2 -4,5 -5,8 -2,3 -3,7 -4,11 -1,4 -1,8 -1,13 1,5 1,12 2,19 0,7 1,15 2,23 0,9 1,17 2,26 1,9 2,18 2,26 1,9 2,17 3,25 1,8 2,15 2,22 1,6 2,11 2,16 1,4 1,7 2,9 0,2 1,4 2,6 1,1 2,2 4,2 3,0 5,0 7,-1 2,-1 4,-2 5,-3l3 5c-2,1 -4,3 -6,4 -3,1 -5,3 -8,4 -4,1 -7,2 -11,3 -3,1 -7,2 -11,2 -6,0 -11,-1 -14,-3 -4,-1 -7,-3 -8,-5 -2,-2 -4,-5 -4,-7 -1,-3 -1,-5 -2,-7 0,-4 -1,-9 -2,-16 -1,-6 -2,-13 -3,-20 0,-7 -1,-14 -2,-22 -1,-7 -2,-14 -2,-22 -1,-7 -1,-14 -2,-20 0,-6 -1,-12 -1,-17 -3,5 -5,9 -7,13 -3,3 -5,7 -7,12 -2,4 -4,8 -6,12 -2,5 -4,10 -7,15 -2,5 -5,11 -8,17 -2,7 -5,14 -9,21l-12 0z"/>
   <path id="1" class="fil0" d="M535 126c0,16 -1,31 -4,45 -3,15 -8,29 -13,42 -5,13 -12,24 -19,35 -8,11 -16,20 -24,27 -9,8 -18,14 -28,18 -10,4 -19,6 -29,6 -8,0 -14,-1 -18,-3 -4,-3 -6,-6 -6,-11 0,-1 0,-3 1,-4 0,-2 1,-3 2,-5 1,-1 2,-2 3,-3 1,0 2,-1 4,-1 1,0 3,1 4,3 1,1 2,3 3,5 1,2 3,4 5,6 1,1 4,2 7,2 4,0 8,-1 12,-2 4,-1 8,-3 13,-6 4,-2 8,-5 12,-9 5,-3 9,-7 13,-12 -2,-9 -5,-18 -8,-28 -3,-11 -7,-21 -10,-31 -4,-11 -7,-21 -11,-30 -4,-10 -7,-19 -11,-26 -3,-8 -7,-14 -10,-18 -3,-5 -6,-7 -8,-7 -2,0 -3,0 -4,1 -1,0 -2,1 -3,2l-3 -3c2,-2 4,-3 5,-5 2,-1 5,-3 7,-4 3,-1 6,-2 9,-3 4,-1 8,-1 13,-1 5,0 10,1 14,3 5,2 9,7 13,13 2,5 5,11 8,17 3,7 6,14 9,22 3,9 6,17 9,27 3,9 6,19 9,30 5,-11 9,-23 12,-36 4,-12 5,-25 5,-38 0,-5 0,-9 -1,-13 0,-3 -1,-6 -2,-8 0,-2 -1,-5 -2,-6 0,-2 -1,-3 -1,-5 0,-1 1,-2 2,-3 1,-1 2,-2 4,-2 1,-1 3,-1 4,-1 2,0 3,0 4,0 2,0 4,0 5,1 2,1 2,2 3,4 1,2 1,4 1,6 0,3 0,6 0,9z"/>
   <path id="2" class="fil0" d="M684 194c2,-5 4,-10 6,-16 2,-6 4,-12 6,-18 2,-6 4,-13 6,-19 1,-7 3,-13 5,-19l-13 -41c-1,-3 -1,-5 0,-8 1,-2 3,-3 5,-5 2,-1 5,-2 8,-3 3,-1 6,-1 9,-1 3,0 5,0 8,0 2,1 4,1 6,2 1,1 3,2 4,3 1,2 2,4 2,6l38 119c2,-5 4,-11 6,-17 2,-6 4,-13 6,-19 2,-7 4,-13 6,-20 2,-7 4,-13 5,-20 1,-6 2,-13 3,-18 1,-6 2,-12 2,-17 0,-5 -1,-10 -2,-14 0,-4 -1,-7 -2,-9 -1,-3 -2,-5 -3,-7 -1,-1 -1,-3 -1,-4 0,-2 0,-4 1,-5 1,-1 3,-2 4,-3 1,-1 3,-1 5,-2 1,0 3,0 5,0 3,0 6,0 8,1 3,1 4,3 5,5 1,2 1,3 1,5 1,1 1,2 1,4 0,1 0,2 0,3 0,2 0,3 0,3 0,4 0,9 -2,15 -1,6 -2,13 -4,21 -2,8 -5,17 -7,26 -3,9 -5,18 -8,27 -3,9 -6,18 -9,27 -3,9 -5,17 -8,24 -2,8 -5,14 -6,20 -2,6 -4,10 -5,12 -1,3 -2,4 -3,5 -1,2 -2,3 -4,3 -1,1 -3,1 -5,1 -1,1 -3,1 -5,1 -4,0 -6,-1 -9,-1 -2,-1 -4,-2 -5,-3 -1,-1 -2,-2 -3,-3 0,-2 -1,-3 -1,-4l-26 -84c-3,9 -5,19 -8,28 -3,9 -6,17 -9,25 -2,7 -5,14 -7,20 -2,6 -3,10 -5,12 0,3 -1,4 -3,5 -1,2 -2,3 -4,3 -1,1 -3,1 -5,1 -1,1 -3,1 -5,1 -3,0 -6,-1 -8,-1 -3,-1 -4,-2 -6,-3 -1,-1 -2,-2 -3,-3 0,-2 -1,-3 -1,-4l-46 -153c-1,-3 -2,-6 -3,-8 -1,-2 -2,-3 -3,-5 -2,-1 -4,-2 -6,-2 -2,-1 -4,-1 -7,-1 -2,0 -5,0 -8,1 -4,2 -7,3 -10,6 -2,2 -5,5 -7,8 -2,3 -3,7 -3,12 0,3 1,5 1,6 1,2 2,3 3,4 1,1 2,1 3,2 1,0 1,0 2,0 2,0 4,0 5,-1 2,-1 3,-2 4,-2 1,-1 2,-2 3,-3 1,0 2,-1 3,-1 2,0 3,0 4,1 1,0 2,1 3,2 1,1 2,3 3,4 0,2 1,4 1,6 0,4 -1,7 -2,9 -2,3 -3,5 -6,6 -2,2 -4,3 -7,4 -3,1 -5,1 -8,1 -4,0 -8,0 -11,-2 -3,-1 -6,-3 -8,-6 -2,-2 -4,-5 -5,-8 -1,-4 -2,-7 -2,-11 0,-9 2,-17 5,-23 4,-7 8,-13 14,-17 6,-5 12,-8 19,-10 8,-2 15,-3 23,-3 8,0 15,1 21,3 5,3 10,6 13,11 4,4 6,8 8,13 2,6 4,11 6,16l32 104z"/>
   <path id="3" class="fil0" d="M869 180c0,3 0,6 1,9 1,3 2,7 3,10 2,3 4,6 6,9 2,3 5,6 8,8 3,3 6,4 10,6 3,1 7,2 12,2 3,0 6,0 8,-1 3,-1 5,-2 7,-3 3,-1 5,-3 7,-4 2,-2 4,-3 6,-5l3 3c-2,3 -4,5 -7,9 -3,3 -7,6 -12,9 -4,2 -9,5 -15,7 -6,1 -12,2 -20,2 -7,0 -15,-1 -22,-4 -7,-2 -13,-6 -19,-12 -5,-5 -10,-12 -13,-20 -3,-8 -5,-18 -5,-29 0,-7 1,-15 3,-21 2,-7 5,-13 8,-18 3,-5 7,-10 12,-14 4,-4 9,-7 14,-10 5,-2 10,-4 15,-5 6,-2 11,-2 16,-2 6,0 11,0 16,2 5,1 9,3 12,5 3,2 5,5 7,8 2,3 2,6 2,10 0,4 -1,7 -3,11 -2,3 -6,6 -9,8l-51 30zm26 -26c1,-1 2,-1 2,-2 1,-1 2,-1 2,-2 0,-1 1,-2 1,-4 0,-1 0,-3 0,-5 0,-2 0,-4 0,-7 -1,-2 -2,-5 -3,-7 -1,-2 -2,-4 -4,-6 -2,-2 -4,-2 -6,-2 -3,0 -6,1 -8,2 -2,2 -4,5 -6,8 -1,3 -2,6 -3,10 -1,3 -1,7 -2,11 0,4 0,7 -1,11 0,3 0,6 0,9l28 -16z"/>
   <path id="4" class="fil0" d="M1030 175c0,-7 0,-14 -1,-21 -1,-6 -2,-12 -4,-17 -1,-5 -3,-9 -6,-12 -3,-3 -6,-4 -10,-4 -3,0 -5,0 -7,2 -2,1 -4,3 -5,5 -1,2 -2,3 -3,5 -1,2 -1,3 -1,4l0 38c0,19 2,33 5,41 3,9 8,13 14,13 6,0 11,-4 14,-13 3,-9 4,-22 4,-41zm-77 -114c0,-2 0,-4 -1,-6 -2,-2 -3,-3 -6,-3 -2,0 -3,0 -4,1 -1,0 -2,1 -3,2l-3 -3c2,-2 4,-3 7,-5 2,-2 5,-3 8,-4 2,-1 5,-2 9,-3 3,-1 6,-1 10,-1 5,0 9,0 12,2 3,1 6,3 7,5 2,3 3,5 3,8 1,2 1,4 1,7l0 57c1,-1 2,-2 4,-3 2,-2 4,-3 6,-5 3,-1 6,-2 9,-3 4,-1 8,-1 13,-1 5,0 11,1 16,3 6,3 11,7 15,12 4,6 8,13 11,21 2,9 4,19 4,31 0,9 -1,18 -4,27 -3,8 -6,15 -11,21 -5,7 -12,12 -19,15 -8,4 -16,6 -26,6 -11,0 -20,-2 -27,-6 -8,-3 -14,-8 -18,-14 -5,-6 -8,-12 -10,-20 -2,-8 -3,-16 -3,-25l0 -116z"/>
   <path id="5" class="fil0" d="M1137 116c-2,0 -4,0 -5,1 -2,0 -4,1 -5,2 -2,1 -3,3 -3,5 -1,1 -2,3 -2,6 0,3 2,7 4,10 3,3 6,7 9,10 4,4 8,7 12,11 4,4 8,8 12,12 4,5 7,9 9,14 3,5 4,10 4,15 0,7 -1,12 -3,17 -2,5 -5,9 -9,12 -4,4 -9,6 -14,8 -6,2 -12,3 -19,3 -6,0 -11,-1 -16,-3 -5,-2 -9,-4 -13,-6 -4,-3 -7,-5 -10,-8 -2,-3 -4,-5 -6,-7l5 -4c1,2 2,3 4,5 2,1 4,2 6,4 2,1 4,2 6,3 3,1 5,1 8,1 6,0 11,-1 15,-4 4,-3 6,-8 6,-14 0,-3 -1,-6 -3,-10 -2,-3 -5,-7 -8,-10 -4,-4 -7,-8 -11,-12 -4,-4 -7,-8 -11,-12 -3,-4 -6,-9 -8,-13 -2,-5 -3,-9 -3,-14 0,-6 1,-10 3,-14 3,-4 5,-8 9,-10 4,-3 8,-5 13,-6 4,-2 9,-2 14,-2 6,0 11,0 16,1 5,1 9,3 12,5 4,2 6,5 8,8 2,3 3,7 3,11 0,3 -1,6 -3,8 -3,3 -6,4 -9,4 -4,0 -7,-1 -9,-2 -2,-2 -3,-4 -3,-7 0,-2 1,-3 2,-4 0,-1 1,-2 3,-3 1,0 2,-1 3,-1 1,-1 1,-1 1,-2 0,-3 -1,-5 -4,-6 -2,-1 -6,-2 -10,-2z"/>
   <path id="6" class="fil0" d="M1235 117l0 95c0,5 1,8 3,10 1,1 4,2 7,2 2,0 4,0 6,-2 2,-1 3,-2 5,-4 1,-2 3,-4 4,-6l4 1c-2,3 -3,6 -5,9 -2,4 -4,7 -7,9 -3,3 -7,6 -11,8 -4,1 -10,2 -17,2 -3,0 -7,0 -11,-1 -3,-1 -6,-3 -9,-6 -3,-2 -5,-5 -6,-9 -2,-3 -3,-8 -3,-13l0 -95 -14 0 0 -10c2,0 5,0 10,-2 4,-1 8,-3 13,-6 4,-3 9,-7 13,-12 3,-4 6,-11 8,-18l10 0 0 38 21 0c7,0 11,-1 11,-3 0,-1 -1,-2 -2,-2 -1,0 -2,-1 -3,-1 -1,-1 -2,-1 -3,-2 0,-1 -1,-2 -1,-4 0,-3 1,-5 2,-6 2,-1 4,-2 6,-2 2,0 3,0 4,1 2,1 2,1 3,2 1,2 2,3 2,4 0,2 1,3 1,4 0,6 -2,10 -5,14 -3,3 -9,5 -16,5l-20 0z"/>
   <path id="7" class="fil0" d="M1272 173c0,-11 1,-21 4,-29 4,-9 8,-16 14,-21 5,-6 11,-10 19,-13 7,-3 14,-4 22,-4 8,0 16,1 23,3 7,3 14,7 19,13 6,5 10,12 13,20 4,8 5,18 5,30 0,11 -1,21 -5,30 -3,8 -7,16 -13,22 -5,5 -12,10 -19,13 -7,3 -15,5 -23,5 -8,0 -15,-2 -22,-5 -8,-3 -14,-7 -19,-13 -6,-5 -10,-12 -14,-21 -3,-8 -4,-18 -4,-30zm79 -1c0,-7 0,-13 -1,-20 0,-6 -1,-12 -2,-17 -2,-5 -4,-9 -6,-12 -3,-3 -6,-4 -11,-4 -4,0 -7,1 -10,4 -2,4 -4,8 -6,13 -1,5 -2,11 -2,17 -1,7 -1,14 -1,20 0,7 0,14 1,21 0,6 1,12 2,17 2,5 4,10 6,13 3,3 6,4 10,4 5,0 8,-1 11,-4 2,-4 4,-8 6,-13 1,-6 2,-12 2,-18 1,-7 1,-14 1,-21z"/>
   <path id="8" class="fil0" d="M1457 133c3,-5 6,-10 10,-14 2,-2 3,-3 5,-5 2,-1 4,-3 6,-4 2,-2 4,-3 6,-3 2,-1 4,-1 6,-1 4,0 8,1 10,3 3,3 4,7 4,12 0,2 0,5 -1,8 0,3 -1,6 -3,10l-3 0c-1,-3 -2,-5 -4,-7 -2,-2 -4,-2 -8,-2 -3,0 -5,0 -8,1 -3,1 -5,2 -8,4 -2,1 -4,3 -6,4 -3,2 -5,4 -6,5l0 84c0,1 -1,3 -1,4 0,2 -1,3 -3,5 -1,1 -3,2 -5,3 -3,1 -7,2 -11,2 -5,0 -8,-1 -11,-2 -3,-1 -5,-2 -6,-4 -1,-1 -2,-3 -3,-4 0,-2 0,-3 0,-4l0 -100c0,-2 -1,-4 -2,-6 -1,-2 -3,-3 -6,-3 -1,0 -2,0 -3,1 -2,0 -3,1 -4,2l-3 -3c2,-2 5,-4 7,-5 3,-2 5,-3 8,-4 3,-2 6,-3 9,-3 3,-1 7,-1 11,-1 3,0 6,0 9,1 3,1 5,2 6,4 2,1 3,3 4,5 1,2 2,4 3,6 0,2 0,4 0,6 0,2 1,3 1,5z"/>
   <path id="9" class="fil0" d="M1548 180c0,3 1,6 2,9 0,3 2,7 3,10 2,3 4,6 6,9 2,3 5,6 8,8 3,3 6,4 10,6 3,1 7,2 11,2 4,0 6,0 9,-1 2,-1 5,-2 7,-3 2,-1 4,-3 7,-4 2,-2 4,-3 6,-5l3 3c-2,3 -4,5 -8,9 -3,3 -6,6 -11,9 -4,2 -9,5 -15,7 -6,1 -13,2 -20,2 -8,0 -15,-1 -22,-4 -7,-2 -14,-6 -19,-12 -6,-5 -10,-12 -13,-20 -4,-8 -5,-18 -5,-29 0,-7 1,-15 3,-21 2,-7 4,-13 8,-18 3,-5 7,-10 12,-14 4,-4 9,-7 14,-10 5,-2 10,-4 15,-5 5,-2 10,-2 15,-2 7,0 12,0 17,2 5,1 9,3 12,5 3,2 5,5 7,8 1,3 2,6 2,10 0,4 -1,7 -3,11 -3,3 -6,6 -10,8l-51 30zm26 -26c1,-1 2,-1 3,-2 1,-1 1,-1 2,-2 0,-1 1,-2 1,-4 0,-1 0,-3 0,-5 0,-2 0,-4 -1,-7 0,-2 -1,-5 -2,-7 -1,-2 -3,-4 -4,-6 -2,-2 -4,-2 -6,-2 -4,0 -6,1 -8,2 -3,2 -4,5 -6,8 -1,3 -2,6 -3,10 -1,3 -2,7 -2,11 0,4 -1,7 -1,11 0,3 0,6 0,9l27 -16z"/>
   <path class="fil1" d="M10 61c-12,4 -11,16 -8,30 9,53 17,40 5,107 -5,22 -11,60 24,50 33,-10 72,-47 90,-75 23,-33 -1,-56 -26,-76 -8,-6 -15,-10 -25,-16 -10,-7 -44,-24 -60,-20z"/>
  </g>
 </g>
</svg>
