<?xml version="1.0" encoding="UTF-8"?>
<!DOCTYPE svg PUBLIC "-//W3C//DTD SVG 1.1//EN" "http://www.w3.org/Graphics/SVG/1.1/DTD/svg11.dtd">
<!-- Creator: CorelDRAW 2017 -->
<svg xmlns="http://www.w3.org/2000/svg" xml:space="preserve" width="603px" height="500px" version="1.1" style="shape-rendering:geometricPrecision; text-rendering:geometricPrecision; image-rendering:optimizeQuality; fill-rule:evenodd; clip-rule:evenodd"
viewBox="0 0 603 499.9"
 xmlns:xlink="http://www.w3.org/1999/xlink">
 <defs>
  <style type="text/css">
   <![CDATA[
    .fil0 {fill:#FEFEFE}
   ]]>
  </style>
 </defs>
 <g id="Layer_x0020_1">
  <metadata id="CorelCorpID_0Corel-Layer"/>
  <g id="_1232461524784">
   <g>
    <g>
     <g>
      <path class="fil0" d="M587.36 53.78l-371.63 0 0 -14.69c0,-21.56 -17.54,-39.09 -39.09,-39.09l-60.65 0c-21.56,0 -39.09,17.53 -39.09,39.09l0 14.69 -61.27 0c-8.63,0 -15.63,7 -15.63,15.64 0,8.63 7,15.63 15.63,15.63l61.27 0 0 14.69c0,21.55 17.53,39.09 39.08,39.09l60.66 0c21.55,0 39.09,-17.54 39.09,-39.09l0 -14.69 371.63 0c8.64,0 15.64,-7 15.64,-15.63 0,-8.64 -7,-15.64 -15.64,-15.64zm-402.9 45.96c0,4.31 -3.51,7.82 -7.82,7.82l-60.65 0c-4.31,0 -7.82,-3.51 -7.82,-7.82l0 -60.65c0,-4.31 3.51,-7.82 7.82,-7.82l60.65 0c4.31,0 7.82,3.51 7.82,7.82l0 60.65z" data-original="#000000" data-old_color="#000000"/>
     </g>
    </g>
    <g>
     <g>
      <path class="fil0" d="M587.37 227.92l-61.27 0 0 -14.7c0,-21.55 -17.53,-39.08 -39.08,-39.08l-60.66 0c-21.55,0 -39.09,17.53 -39.09,39.08l0 14.7 -371.64 0c-8.63,0 -15.63,7 -15.63,15.64 0,8.63 7,15.63 15.63,15.63l371.64 0 0 14.69c0,21.55 17.54,39.08 39.09,39.08l60.65 0c21.56,0 39.09,-17.53 39.09,-39.08l0 -14.69 61.27 0c8.63,0 15.63,-7 15.63,-15.63 0,-8.64 -7,-15.64 -15.63,-15.64zm-92.54 45.96c0,4.31 -3.51,7.81 -7.82,7.81l-60.65 0c-4.31,0 -7.82,-3.5 -7.82,-7.81l0 -60.66c0,-4.31 3.51,-7.82 7.82,-7.82l60.65 0c4.31,0 7.82,3.51 7.82,7.82l0 60.66z" data-original="#000000" data-old_color="#000000"/>
     </g>
    </g>
    <g>
     <g>
      <path class="fil0" d="M587.37 414.85l-261.81 0 0 -14.69c0,-21.55 -17.53,-39.09 -39.08,-39.09l-60.66 0c-21.55,0 -39.08,17.54 -39.08,39.09l0 14.69 -171.11 0c-8.63,0 -15.63,7 -15.63,15.63 0,8.64 7,15.64 15.63,15.64l171.1 0 0 14.69c0,21.56 17.54,39.09 39.09,39.09l60.66 0c21.55,0 39.08,-17.53 39.08,-39.09l0 -14.69 261.81 0c8.63,0 15.63,-7 15.63,-15.63 0,-8.64 -7,-15.64 -15.63,-15.64zm-293.08 45.97c0,4.31 -3.5,7.81 -7.81,7.81l-60.66 0c-4.31,0 -7.82,-3.5 -7.82,-7.81l0 -60.66c0,-4.31 3.51,-7.82 7.82,-7.82l60.66 0c4.31,0 7.81,3.51 7.81,7.82l0 60.66z" data-original="#000000" data-old_color="#000000"/>
     </g>
    </g>
   </g>
  </g>
 </g>
</svg>
