<?xml version="1.0" encoding="UTF-8"?>
<!DOCTYPE svg PUBLIC "-//W3C//DTD SVG 1.1//EN" "http://www.w3.org/Graphics/SVG/1.1/DTD/svg11.dtd">
<!-- Creator: CorelDRAW 2017 -->
<svg xmlns="http://www.w3.org/2000/svg" xml:space="preserve" width="468px" height="500px" version="1.1" style="shape-rendering:geometricPrecision; text-rendering:geometricPrecision; image-rendering:optimizeQuality; fill-rule:evenodd; clip-rule:evenodd"
viewBox="0 0 468 500.23"
 xmlns:xlink="http://www.w3.org/1999/xlink">
 <defs>
  <style type="text/css">
   <![CDATA[
    .fil0 {fill:#FEFEFE}
   ]]>
  </style>
 </defs>
 <g id="Layer_x0020_1">
  <metadata id="CorelCorpID_0Corel-Layer"/>
  <g id="_1232494091904">
   <g>
    <path class="fil0" d="M400.38 48.1l0.19 0c4.08,0 7.39,-3.31 7.39,-7.4 0,-4.08 -3.31,-7.39 -7.39,-7.39l-0.19 0c-4.09,0 -7.4,3.31 -7.4,7.39 0,4.09 3.31,7.4 7.4,7.4zm0 0z" data-original="#000000" data-old_color="#000000"/>
    <path class="fil0" d="M365.02 48.1l0.23 0c4.08,0 7.39,-3.31 7.39,-7.4 0,-4.08 -3.31,-7.39 -7.39,-7.39l-0.23 0c-4.08,0 -7.39,3.31 -7.39,7.39 0,4.09 3.31,7.4 7.39,7.4zm0 0z" data-original="#000000" data-old_color="#000000"/>
    <path class="fil0" d="M329.7 48.27l0.19 0c4.09,0 7.4,-3.32 7.4,-7.4 0,-4.08 -3.31,-7.4 -7.4,-7.4l-0.19 0c-4.08,0 -7.4,3.32 -7.4,7.4 0,4.08 3.32,7.4 7.4,7.4zm0 0z" data-original="#000000" data-old_color="#000000"/>
    <path class="fil0" d="M281.65 42.89c0,-4.08 -3.31,-7.4 -7.39,-7.4l-204.87 0c-4.08,0 -7.4,3.32 -7.4,7.4 0,4.09 3.32,7.4 7.4,7.4l204.87 0c4.08,0 7.39,-3.31 7.39,-7.4zm0 0z" data-original="#000000" data-old_color="#000000"/>
    <path class="fil0" d="M94.21 301.01l-25.01 0c-6.93,0 -12.57,5.64 -12.57,12.58l0 25.05c0,6.95 5.64,12.61 12.57,12.61l25.01 0c6.93,0 12.57,-5.66 12.57,-12.61l0 -25.05c0,-6.94 -5.64,-12.58 -12.57,-12.58l0 0zm-2.23 35.44l-20.55 0 0 -20.64 20.55 0 0 20.64zm0 0z" data-original="#000000" data-old_color="#000000"/>
    <path class="fil0" d="M288.29 301.01l-24.98 0c-6.94,0 -12.59,5.64 -12.59,12.58l0 25.05c0,6.95 5.65,12.61 12.59,12.61l24.98 0c6.95,0 12.6,-5.66 12.6,-12.61l0 -25.05c0,-6.94 -5.65,-12.58 -12.6,-12.58l0 0zm-2.19 35.44l-20.59 0 0 -20.64 20.59 0 0 20.64zm0 0z" data-original="#000000" data-old_color="#000000"/>
    <path class="fil0" d="M211.49 318.73l-82.39 0c-4.09,0 -7.4,3.31 -7.4,7.4 0,4.08 3.31,7.4 7.4,7.4l82.39 0c4.08,0 7.4,-3.32 7.4,-7.4 0,-4.09 -3.32,-7.4 -7.4,-7.4zm0 0z" data-original="#000000" data-old_color="#000000"/>
    <path class="fil0" d="M405.57 318.73l-82.39 0c-4.09,0 -7.4,3.31 -7.4,7.4 0,4.08 3.31,7.4 7.4,7.4l82.39 0c4.09,0 7.4,-3.32 7.4,-7.4 0,-4.09 -3.31,-7.4 -7.4,-7.4zm0 0z" data-original="#000000" data-old_color="#000000"/>
    <path class="fil0" d="M94.21 379.15l-25.01 0c-6.93,0 -12.57,5.65 -12.57,12.6l0 25.03c0,6.95 5.64,12.6 12.57,12.6l25.01 0c6.93,0 12.57,-5.65 12.57,-12.6l0 -25.03c0,-6.95 -5.64,-12.6 -12.57,-12.6zm-2.23 35.44l-20.55 0 0 -20.65 20.55 0 0 20.65zm0 0z" data-original="#000000" data-old_color="#000000"/>
    <path class="fil0" d="M288.29 379.15l-24.98 0c-6.94,0 -12.59,5.65 -12.59,12.6l0 25.03c0,6.95 5.65,12.6 12.59,12.6l24.98 0c6.95,0 12.6,-5.65 12.6,-12.6l0 -25.03c0,-6.95 -5.65,-12.6 -12.6,-12.6zm-2.19 35.44l-20.59 0 0 -20.65 20.59 0 0 20.65zm0 0z" data-original="#000000" data-old_color="#000000"/>
    <path class="fil0" d="M211.49 396.87l-82.39 0c-4.09,0 -7.4,3.31 -7.4,7.39 0,4.09 3.31,7.4 7.4,7.4l82.39 0c4.08,0 7.4,-3.31 7.4,-7.4 0,-4.08 -3.32,-7.39 -7.4,-7.39zm0 0z" data-original="#000000" data-old_color="#000000"/>
    <path class="fil0" d="M405.57 396.87l-82.39 0c-4.09,0 -7.4,3.31 -7.4,7.39 0,4.09 3.31,7.4 7.4,7.4l82.39 0c4.09,0 7.4,-3.31 7.4,-7.4 0,-4.08 -3.31,-7.39 -7.4,-7.39zm0 0z" data-original="#000000" data-old_color="#000000"/>
    <path class="fil0" d="M440.95 0l-413.93 0c-14.9,0 -27.02,12.14 -27.02,27.06l0 446.09c0,14.93 12.12,27.08 27.02,27.08l413.93 0c14.91,0 27.05,-12.15 27.05,-27.08l0 -446.1c0,-14.91 -12.14,-27.05 -27.05,-27.05l0 0zm0 485.44l-413.93 0c-6.74,0 -12.22,-5.52 -12.22,-12.29l0 -387.34 208.44 0c4.08,0 7.39,-3.31 7.39,-7.4 0,-4.08 -3.31,-7.39 -7.39,-7.39l-208.45 0 0 -43.96c0,-6.76 5.49,-12.27 12.23,-12.27l413.93 0c6.76,0 12.25,5.51 12.25,12.26l0 43.97 -196.22 0c-4.08,0 -7.4,3.31 -7.4,7.39 0,4.09 3.32,7.4 7.4,7.4l196.22 0 0 387.34c0,6.77 -5.49,12.29 -12.25,12.29zm0 0z" data-original="#000000" data-old_color="#000000"/>
    <path class="fil0" d="M395.82 130.55l-322.06 0c-9.45,0 -17.13,7.7 -17.13,17.17l0 112.15c0,9.47 7.68,17.18 17.13,17.18l140.85 0c4.08,0 7.4,-3.31 7.4,-7.4 0,-4.09 -3.32,-7.4 -7.4,-7.4l-140.85 0c-1.27,0 -2.33,-1.09 -2.33,-2.37l0 -112.16c0,-1.29 1.06,-2.38 2.33,-2.38l322.06 0c1.27,0 2.35,1.09 2.35,2.38l0 112.15c0,1.29 -1.08,2.38 -2.35,2.38l-147.43 0c-4.09,0 -7.4,3.31 -7.4,7.4 0,4.08 3.31,7.39 7.4,7.39l147.43 0c9.45,0 17.15,-7.7 17.15,-17.17l0 -112.15c0,-9.47 -7.7,-17.17 -17.15,-17.17l0 0zm0 0z" data-original="#000000" data-old_color="#000000"/>
    <path class="fil0" d="M107.15 230.31l255.3 0c4.09,0 7.4,-3.31 7.4,-7.4 0,-4.08 -3.31,-7.39 -7.4,-7.39l-255.3 0c-4.09,0 -7.4,3.31 -7.4,7.39 0,4.09 3.31,7.4 7.4,7.4zm0 0z" data-original="#000000" data-old_color="#000000"/>
    <path class="fil0" d="M107.15 192.07l255.3 0c4.09,0 7.4,-3.31 7.4,-7.39 0,-4.09 -3.31,-7.4 -7.4,-7.4l-255.3 0c-4.09,0 -7.4,3.31 -7.4,7.4 0,4.08 3.31,7.39 7.4,7.39zm0 0z" data-original="#000000" data-old_color="#000000"/>
   </g>
  </g>
 </g>
</svg>
