<?xml version="1.0" encoding="UTF-8"?>
<!DOCTYPE svg PUBLIC "-//W3C//DTD SVG 1.1//EN" "http://www.w3.org/Graphics/SVG/1.1/DTD/svg11.dtd">
<!-- Creator: CorelDRAW 2017 -->
<svg xmlns="http://www.w3.org/2000/svg" xml:space="preserve" width="749px" height="500px" version="1.1" style="shape-rendering:geometricPrecision; text-rendering:geometricPrecision; image-rendering:optimizeQuality; fill-rule:evenodd; clip-rule:evenodd"
viewBox="0 0 881.36 588.01"
 xmlns:xlink="http://www.w3.org/1999/xlink">
 <defs>
  <style type="text/css">
   <![CDATA[
    .str0 {stroke:#79C142;stroke-width:17.99;stroke-miterlimit:2.61313}
    .fil0 {fill:none}
   ]]>
  </style>
 </defs>
 <g id="Layer_x0020_1">
  <metadata id="CorelCorpID_0Corel-Layer"/>
  <g id="_1232463810400">
   <g>
    <g>
     <g id="_35_21_">
      <path class="fil0 str0" d="M744.28 9.16c-72.2,-3.9 -124.35,61.47 -127.96,127.96 2.58,47.57 24.3,81.3 54.05,101.4 -28.83,43.31 -57.68,86.64 -86.53,129.96 -16.13,-8.44 -34.11,-13.54 -52.21,-14.51 -25.56,-1.38 -48.21,7.25 -66.43,21.72 -33.03,-36.89 -66.07,-73.78 -99.08,-110.67 5.69,-11.84 9.2,-24.79 9.91,-37.83 2.67,-49.67 -42.32,-85.6 -88.06,-88.07 -49.66,-2.68 -85.61,42.34 -88.06,88.07 0.74,13.75 4.21,26.27 9.58,37.46 -27.13,31.46 -54.27,62.91 -81.41,94.37 -11.99,-8.47 -26.67,-13.7 -43.25,-14.6 -42.71,-2.3 -73.61,36.41 -75.74,75.75 -2.3,42.7 36.43,73.6 75.74,75.71 42.71,2.3 73.62,-36.41 75.72,-75.71 -0.76,-14.35 -4.96,-27.14 -11.49,-38.14 20.68,-23.97 41.37,-47.95 62.06,-71.93 5.66,-6.58 11.33,-13.14 16.99,-19.69 15.32,14.48 35.87,23.56 59.85,24.85 23.92,1.29 44.62,-8.55 59.95,-24.14 31.93,35.69 63.89,71.37 95.81,107.06 -14.39,19.7 -23.25,43.86 -24.55,68.26 3.43,63.58 48.86,108.99 112.45,112.44 63.44,3.41 109.26,-54.03 112.43,-112.44 1.75,-32.55 -12.57,-60.39 -34.77,-80.29 29.63,-44.5 59.24,-88.99 88.87,-133.47 72.78,26.24 168.47,-12.25 174.05,-115.54 3.91,-72.22 -61.45,-124.4 -127.92,-127.98z" data-original="#000000" data-old_color="#000000"/>
     </g>
    </g>
   </g>
  </g>
 </g>
</svg>
