<?xml version="1.0" encoding="UTF-8"?>
<!DOCTYPE svg PUBLIC "-//W3C//DTD SVG 1.1//EN" "http://www.w3.org/Graphics/SVG/1.1/DTD/svg11.dtd">
<!-- Creator: CorelDRAW X7 -->
<svg xmlns="http://www.w3.org/2000/svg" xml:space="preserve" width="140px" height="25px" version="1.1" style="shape-rendering:geometricPrecision; text-rendering:geometricPrecision; image-rendering:optimizeQuality; fill-rule:evenodd; clip-rule:evenodd"
viewBox="0 0 1400 250"
 xmlns:xlink="http://www.w3.org/1999/xlink">
 <defs>
  <style type="text/css">
   <![CDATA[
    .fil1 {fill:#4F5B64}
    .fil0 {fill:url(#id0)}
   ]]>
  </style>
  <linearGradient id="id0" gradientUnits="userSpaceOnUse" x1="113.833" y1="127.152" x2="395.253" y2="127.152">
   <stop offset="0" style="stop-opacity:1; stop-color:#7FC34D"/>
   <stop offset="1" style="stop-opacity:1; stop-color:#A4CE46"/>
  </linearGradient>
 </defs>
 <g id="Layer_x0020_1">
  <metadata id="CorelCorpID_0Corel-Layer"/>
  <g id="_650205856">
   <g>
    <path class="fil0" d="M395 21c1,-18 -26,-14 -37,-13 -15,3 -24,8 -33,21 -13,18 -27,47 -39,67 -6,11 -12,23 -19,34 -18,28 -20,10 -29,17 0,0 -18,31 -19,34 -4,8 8,24 13,33 5,9 14,27 22,31 14,8 22,-10 28,-20 13,-21 26,-45 39,-67 11,-20 74,-124 74,-137zm-116 0c2,-16 -25,-15 -36,-14 -15,1 -25,6 -34,18 -12,17 -27,47 -38,66 -12,22 -25,43 -38,65 -16,28 -29,42 -9,74 6,11 14,26 28,13 8,-8 16,-22 20,-32 23,-47 24,-35 36,-36 5,-1 8,-10 10,-14 6,-11 16,-22 14,-34 -2,-16 2,-26 10,-40 7,-13 37,-55 37,-66z"/>
    <path class="fil1" d="M168 19c2,-19 -52,-12 -63,-12 -27,1 -51,-2 -77,-1 -40,1 -29,13 -16,37 10,17 20,33 29,50 9,15 20,36 30,49 18,23 32,-8 40,-23 8,-13 57,-93 57,-100z"/>
   </g>
   <path class="fil1" d="M523 162l0 -18c0,-48 -27,-82 -77,-82 -50,0 -78,32 -78,82l0 24c0,64 46,82 79,82 29,0 42,-2 63,-6 6,-1 7,-3 7,-8l0 -22c0,-3 -3,-5 -6,-5 -1,0 -1,0 -1,0 -14,2 -36,4 -60,4 -31,0 -39,-23 -39,-42l0 -1 106 0c4,0 6,-2 6,-8zm-43 -22l-69 0 0 -1c0,-26 15,-40 35,-40 20,0 34,14 34,40l0 1zm218 28l0 -25c0,-50 -25,-81 -78,-81 -8,0 -19,0 -31,2l0 -58c0,-3 -3,-6 -6,-6l-30 0c-4,0 -7,3 -7,6l0 227c0,4 2,6 9,8 20,5 44,9 65,9 53,0 78,-31 78,-82zm-43 0c0,27 -7,47 -35,47 -11,0 -25,-1 -31,-3l0 -113c9,-1 23,-2 31,-2 28,0 35,20 35,46l0 25zm188 31c0,-17 -4,-33 -31,-49l-43 -26c-8,-5 -13,-8 -13,-14 0,-10 7,-13 23,-13 18,0 44,2 53,4 0,0 1,0 1,0 4,0 6,-3 6,-7l0 -18c0,-4 -2,-7 -6,-8 -17,-3 -32,-6 -58,-6 -41,0 -62,16 -62,48 0,19 12,35 28,45l44 27c10,7 14,11 14,17 0,9 -3,16 -23,16 -9,0 -39,-2 -54,-4 -1,0 -1,0 -2,0 -3,0 -5,3 -5,5l0 20c0,4 2,6 6,7 18,5 46,7 58,7 43,0 64,-23 64,-51zm121 43l0 -21c0,-3 -3,-5 -7,-5l-17 0c-12,0 -13,-2 -13,-18l0 -102 29 0c4,0 7,-3 7,-6l0 -20c0,-3 -3,-6 -7,-6l-29 0 0 -33c0,-4 -2,-5 -5,-5 0,0 -1,0 -1,0l-31 5c-3,1 -6,3 -6,6l0 27 -31 0c-3,0 -6,3 -6,6l0 15c0,4 3,6 6,7l31 4 0 102c0,44 15,52 52,52 7,0 14,-1 22,-3 4,0 6,-2 6,-5zm162 -73l0 -26c0,-47 -27,-81 -78,-81 -51,0 -78,34 -78,81l0 26c0,46 27,81 78,81 51,0 78,-35 78,-81zm-43 0c0,26 -12,44 -35,44 -23,0 -35,-18 -35,-44l0 -26c0,-27 12,-44 35,-44 23,0 35,17 35,44l0 26zm160 -77l0 -24c0,-3 -3,-6 -7,-6 -13,0 -30,3 -46,15l0 -7c0,-3 -3,-6 -7,-6l-28 0c-4,0 -6,3 -6,6l0 170c0,4 2,7 6,7l30 0c3,0 6,-3 6,-7l0 -130c14,-7 28,-12 45,-12 4,0 7,-3 7,-6l0 0zm157 70l0 -18c0,-48 -27,-82 -77,-82 -50,0 -78,32 -78,82l0 24c0,64 46,82 78,82 30,0 42,-2 63,-6 6,-1 7,-3 7,-8l0 -22c0,-3 -2,-5 -6,-5 0,0 0,0 -1,0 -13,2 -36,4 -59,4 -32,0 -39,-23 -39,-42l0 -1 106 0c4,0 6,-2 6,-8zm-43 -22l-69 0 0 -1c0,-26 15,-40 35,-40 20,0 34,14 34,40l0 1z"/>
  </g>
 </g>
</svg>
