<?xml version="1.0" encoding="UTF-8"?>
<!DOCTYPE svg PUBLIC "-//W3C//DTD SVG 1.1//EN" "http://www.w3.org/Graphics/SVG/1.1/DTD/svg11.dtd">
<!-- Creator: CorelDRAW 2017 -->
<svg xmlns="http://www.w3.org/2000/svg" xml:space="preserve" width="643px" height="500px" version="1.1" style="shape-rendering:geometricPrecision; text-rendering:geometricPrecision; image-rendering:optimizeQuality; fill-rule:evenodd; clip-rule:evenodd"
viewBox="0 0 643 500.08"
 xmlns:xlink="http://www.w3.org/1999/xlink">
 <defs>
  <style type="text/css">
   <![CDATA[
    .fil0 {fill:#FEFEFE}
   ]]>
  </style>
 </defs>
 <g id="Layer_x0020_1">
  <metadata id="CorelCorpID_0Corel-Layer"/>
  <g id="_1232494105920">
   <g>
    <g>
     <g>
      <path class="fil0" d="M392.41 346.41l-141.82 0c-10.69,0 -19.38,8.69 -19.38,19.38l0 43.49c0,10.69 8.69,19.39 19.38,19.39l141.82 0c10.69,0 19.38,-8.7 19.38,-19.39l0 -43.49c0,-10.69 -8.69,-19.38 -19.38,-19.38zm-5.54 57.34l-130.74 0 0 -32.42 130.74 0 0 32.42z" data-original="#000000" data-old_color="#000000"/>
     </g>
    </g>
    <g>
     <g>
      <path class="fil0" d="M636.69 238.68l0.2 -0.1 -93.44 -184.74c-7.56,-14.93 -22.64,-24.21 -39.37,-24.21l-17.76 0 0 -17.17c0,-6.88 -5.58,-12.46 -12.46,-12.46l-304.72 0c-6.88,0 -12.46,5.58 -12.46,12.46l0 17.17 -17.76 0c-16.73,0 -31.81,9.28 -39.37,24.21l-93.44 184.74 0.2 0.1c-4,6.6 -6.31,14.33 -6.31,22.59l0 195.17c0,24.06 19.58,43.64 43.64,43.64l555.72 0c24.06,0 43.64,-19.58 43.64,-43.64l0 -195.17c0,-8.26 -2.31,-15.99 -6.31,-22.59zm-150.37 -181.35l17.76 0c6.23,0 11.84,3.45 14.66,9.01l76.52 151.28 -52.03 0 0 -46.55c0,-6.88 -5.58,-12.46 -12.46,-12.46l-15.42 0 0 -66.84c0,-6.88 -5.58,-12.46 -12.46,-12.46l-16.57 0 0 -21.98zm31.99 126.2l0 34.09 -65.76 0c-11.28,0 -21.57,6.65 -26.2,16.93l-17.96 39.83c-0.17,0.37 -0.54,0.62 -0.96,0.62l-171.86 0c-0.41,0 -0.79,-0.25 -0.96,-0.62l-17.95 -39.82c-4.64,-10.29 -14.93,-16.94 -26.21,-16.94l-65.75 0 0 -34.09 393.61 0zm-336.71 -158.61l279.8 0 0 54.39 -279.8 0 0 -54.39zm308.83 79.31l0 54.38 -337.86 0 0 -54.38 337.86 0zm-366.17 -37.89c2.82,-5.56 8.43,-9.01 14.66,-9.01l17.76 0 0 21.98 -16.57 0c-6.88,0 -12.46,5.58 -12.46,12.46l0 66.84 -15.42 0c-6.88,0 -12.46,5.58 -12.46,12.46l0 46.55 -52.03 0 76.52 -151.28zm475.1 406.05l-555.72 0c-8.79,0 -15.95,-7.16 -15.95,-15.95l0 -195.17c0,-8.8 7.16,-15.96 15.95,-15.96l146.81 0c0.41,0 0.79,0.25 0.96,0.63l17.95 39.82c4.64,10.28 14.93,16.93 26.21,16.93l171.86 0c11.28,0 21.57,-6.65 26.21,-16.93l17.95 -39.82 0 0c0.17,-0.38 0.55,-0.63 0.96,-0.63l146.81 0c8.79,0 15.95,7.16 15.95,15.96l0 195.17 0 0c0,8.79 -7.16,15.95 -15.95,15.95z" data-original="#000000" data-old_color="#000000"/>
     </g>
    </g>
   </g>
  </g>
 </g>
</svg>
