<?xml version="1.0" encoding="UTF-8"?>
<!DOCTYPE svg PUBLIC "-//W3C//DTD SVG 1.1//EN" "http://www.w3.org/Graphics/SVG/1.1/DTD/svg11.dtd">
<!-- Creator: CorelDRAW 2017 -->
<svg xmlns="http://www.w3.org/2000/svg" xml:space="preserve" width="545px" height="500px" version="1.1" style="shape-rendering:geometricPrecision; text-rendering:geometricPrecision; image-rendering:optimizeQuality; fill-rule:evenodd; clip-rule:evenodd"
viewBox="0 0 545 499.58"
 xmlns:xlink="http://www.w3.org/1999/xlink">
 <defs>
  <style type="text/css">
   <![CDATA[
    .fil0 {fill:#FEFEFE}
   ]]>
  </style>
 </defs>
 <g id="Layer_x0020_1">
  <metadata id="CorelCorpID_0Corel-Layer"/>
  <g id="_1232462192944">
   <g>
    <path class="fil0" d="M499.71 389.58l-86.77 -43.39c-8.19,-4.09 -13.27,-12.32 -13.27,-21.48l0 -30.71c2.08,-2.54 4.27,-5.44 6.53,-8.64 11.25,-15.89 20.27,-33.59 26.83,-52.67 12.82,-5.88 21.14,-18.55 21.14,-32.86l0 -36.33c0,-8.75 -3.27,-17.22 -9.09,-23.84l0 -48.32c0.51,-4.99 2.51,-34.73 -19,-59.27 -18.66,-21.28 -48.93,-32.07 -90,-32.07 -41.06,0 -71.34,10.79 -89.99,32.06 -13.04,14.87 -17.43,31.62 -18.75,43.65 -15.57,-8.05 -33.92,-12.13 -54.76,-12.13 -94.36,0 -99.86,80.44 -99.91,81.75l0 41.6c-5.89,6.41 -9.09,13.81 -9.09,21.16l0 31.37c0,9.81 4.39,18.94 11.91,25.12 7.49,28.25 25.92,49.6 33.1,57.09l0 24.91c0,7.15 -3.89,13.71 -10.64,17.4l-60.43 37.9c-23.14,12.63 -37.52,36.85 -37.52,63.21l0 34.49 127.17 0 18.16 0 399.67 0 0 -36.72c0,-31.23 -17.36,-59.31 -45.29,-73.28zm-372.54 71.51l0 20.33 -109 0 0 -16.33c0,-19.71 10.75,-37.82 28.53,-47.53l60.42 -37.9c12.11,-6.61 19.63,-19.27 19.63,-33.08l0 -32.61 -2.89 -2.7c-0.24,-0.22 -24.37,-23.02 -31.5,-54.09l-0.83 -3.6 -3.1 -2c-4.18,-2.71 -6.68,-7.24 -6.68,-12.12l0 -31.37c0,-3.27 2.23,-7.16 6.1,-10.66l2.98 -2.7 -0.02 -48.87c0.17,-2.61 4.9,-64.11 81.77,-64.11 21.74,0 40.04,5.02 54.5,14.93l0 42.98c-5.81,6.62 -9.08,15.09 -9.08,23.84l0 36.33c0,2.76 0.32,5.48 0.92,8.11 0.24,1.06 0.73,2.02 1.07,3.04 0.5,1.52 0.9,3.1 1.6,4.54 0.01,0.02 0.02,0.03 0.03,0.05 2.32,4.79 5.71,9.08 9.98,12.5 0.04,0.18 0.1,0.33 0.14,0.49 0.55,2.08 1.12,4.16 1.74,6.18l0.73 2.37c0.13,0.42 0.29,0.85 0.42,1.26 0.32,0.99 0.63,1.96 0.96,2.92 0.54,1.59 1.11,3.23 1.78,5.02 0.28,0.75 0.59,1.42 0.88,2.16 0.74,1.89 1.49,3.73 2.27,5.55 0.19,0.43 0.35,0.9 0.54,1.33l0.51 1.15c0.24,0.52 0.48,0.99 0.72,1.51 0.89,1.95 1.76,3.83 2.67,5.64 0.14,0.29 0.28,0.61 0.43,0.9 0.57,1.14 1.14,2.21 1.71,3.3 0.98,1.87 1.95,3.63 2.91,5.34 0.47,0.84 0.94,1.65 1.4,2.44 1.31,2.24 2.55,4.29 3.76,6.2 0.26,0.41 0.52,0.83 0.77,1.23 2.2,3.4 4.11,6.16 5.69,8.32 0.42,0.57 0.78,1.06 1.13,1.54 0.2,0.26 0.47,0.64 0.65,0.88l0 30.06c0,8.79 -4.8,16.86 -12.51,21.07l-24.04 13.11 -4.18 -0.37 -1.71 3.58 -51.1 27.88c-26.34,14.39 -42.7,41.95 -42.7,71.96zm399.66 20.33l-381.5 0 0 -20.33c0,-23.35 12.74,-44.82 33.24,-55.99l81.03 -44.2c13.56,-7.4 21.98,-21.6 21.98,-37.03l0 -36.5 0 -0.01 -1.76 -2.11 -0.34 -0.41c-0.02,-0.02 -0.59,-0.7 -1.5,-1.9 -0.06,-0.08 -0.11,-0.15 -0.18,-0.22 -0.48,-0.63 -1.04,-1.38 -1.68,-2.28 -0.01,-0.02 -0.02,-0.03 -0.03,-0.05 -1.36,-1.88 -3.05,-4.32 -4.94,-7.26 -0.05,-0.07 -0.08,-0.14 -0.13,-0.2 -0.89,-1.39 -1.84,-2.91 -2.8,-4.52 -0.07,-0.12 -0.14,-0.23 -0.22,-0.36 -2.05,-3.44 -4.23,-7.34 -6.4,-11.65 0,0 -0.01,-0.01 -0.01,-0.02 -1.15,-2.32 -2.31,-4.75 -3.43,-7.29l0 0c-0.16,-0.35 -0.32,-0.7 -0.47,-1.05l0 0c-0.5,-1.14 -1,-2.33 -1.51,-3.55 -0.18,-0.45 -0.37,-0.91 -0.55,-1.37 -0.47,-1.19 -0.95,-2.38 -1.46,-3.76 -0.93,-2.47 -1.8,-5.05 -2.63,-7.71l-0.5 -1.61c-0.06,-0.19 -0.12,-0.37 -0.18,-0.56 -0.85,-2.87 -1.67,-5.8 -2.36,-8.82l-0.83 -3.6 -3.09 -1.99c-5.27,-3.4 -8.41,-9.1 -8.41,-15.24l0 -36.33c0,-5.1 2.16,-9.85 6.08,-13.4l3 -2.7 0 -56.57 0 -3.21 -0.25 -0.19c-0.3,-6.56 0.09,-26.66 14.75,-43.38 15.05,-17.18 40.74,-25.88 76.33,-25.88 35.47,0 61.11,8.63 76.18,25.68 17.68,20 14.76,45.58 14.74,45.79l-0.08 57.76 2.99 2.71c3.93,3.54 6.09,8.29 6.09,13.39l0 36.33c0,7.93 -5.2,14.87 -12.92,17.25l-4.52 1.39 -1.45 4.5c-6.08,18.9 -14.74,36.36 -25.75,51.89 -2.69,3.83 -5.32,7.21 -7.6,9.8l-2.26 2.58 0 37.47c0,16.08 8.93,30.53 23.31,37.72l86.77 43.39c21.75,10.87 35.25,32.72 35.25,57.04l0 18.56z" data-original="#000000" data-old_color="#000000"/>
   </g>
  </g>
 </g>
</svg>
