<?xml version="1.0"?>
<svg xmlns="http://www.w3.org/2000/svg" height="512px" viewBox="-16 0 511 512" width="512px"><g><path d="m410.296875 49.234375h.195313c4.183593 0 7.570312-3.390625 7.570312-7.574219 0-4.179687-3.386719-7.570312-7.570312-7.570312h-.195313c-4.183594 0-7.574219 3.390625-7.574219 7.570312 0 4.183594 3.390625 7.574219 7.574219 7.574219zm0 0" data-original="#000000" class="active-path" data-old_color="#000000" fill="#8E8E8E"/><path d="m374.113281 49.234375h.226563c4.179687 0 7.570312-3.390625 7.570312-7.574219 0-4.179687-3.390625-7.570312-7.570312-7.570312h-.226563c-4.179687 0-7.570312 3.390625-7.570312 7.570312 0 4.183594 3.386719 7.574219 7.570312 7.574219zm0 0" data-original="#000000" class="active-path" data-old_color="#000000" fill="#8E8E8E"/><path d="m337.957031 49.402344h.199219c4.179688 0 7.570312-3.390625 7.570312-7.570313 0-4.179687-3.390624-7.570312-7.570312-7.570312h-.199219c-4.179687 0-7.570312 3.390625-7.570312 7.570312 0 4.179688 3.390625 7.570313 7.570312 7.570313zm0 0" data-original="#000000" class="active-path" data-old_color="#000000" fill="#8E8E8E"/><path d="m288.78125 43.902344c0-4.183594-3.390625-7.574219-7.570312-7.574219h-209.6875c-4.179688 0-7.570313 3.390625-7.570313 7.574219 0 4.179687 3.390625 7.570312 7.570313 7.570312h209.6875c4.179687 0 7.570312-3.390625 7.570312-7.570312zm0 0" data-original="#000000" class="active-path" data-old_color="#000000" fill="#8E8E8E"/><path d="m96.929688 308.09375h-25.601563c-7.09375 0-12.863281 5.773438-12.863281 12.871094v25.644531c0 7.113281 5.769531 12.902344 12.863281 12.902344h25.601563c7.09375 0 12.859374-5.789063 12.859374-12.902344v-25.644531c0-7.097656-5.769531-12.871094-12.859374-12.871094zm-2.28125 36.273438h-21.039063v-21.128907h21.039063zm0 0" data-original="#000000" class="active-path" data-old_color="#000000" fill="#8E8E8E"/><path d="m295.578125 308.09375h-25.570313c-7.109374 0-12.890624 5.773438-12.890624 12.871094v25.644531c0 7.113281 5.78125 12.902344 12.890624 12.902344h25.570313c7.109375 0 12.890625-5.789063 12.890625-12.902344v-25.644531c0-7.097656-5.78125-12.871094-12.890625-12.871094zm-2.25 36.273438h-21.070313v-21.128907h21.070313zm0 0" data-original="#000000" class="active-path" data-old_color="#000000" fill="#8E8E8E"/><path d="m216.964844 326.230469h-84.332032c-4.183593 0-7.570312 3.390625-7.570312 7.574219 0 4.179687 3.386719 7.570312 7.570312 7.570312h84.332032c4.179687 0 7.570312-3.390625 7.570312-7.570312 0-4.183594-3.390625-7.574219-7.570312-7.574219zm0 0" data-original="#000000" class="active-path" data-old_color="#000000" fill="#8E8E8E"/><path d="m415.613281 326.230469h-84.332031c-4.179688 0-7.570312 3.390625-7.570312 7.574219 0 4.179687 3.390624 7.570312 7.570312 7.570312h84.332031c4.183594 0 7.570313-3.390625 7.570313-7.570312 0-4.183594-3.386719-7.574219-7.570313-7.574219zm0 0" data-original="#000000" class="active-path" data-old_color="#000000" fill="#8E8E8E"/><path d="m96.929688 388.066406h-25.601563c-7.09375 0-12.863281 5.785156-12.863281 12.898438v25.621094c0 7.109374 5.769531 12.898437 12.863281 12.898437h25.601563c7.09375 0 12.859374-5.789063 12.859374-12.898437v-25.621094c0-7.113282-5.769531-12.898438-12.859374-12.898438zm-2.28125 36.273438h-21.039063v-21.128906h21.039063zm0 0" data-original="#000000" class="active-path" data-old_color="#000000" fill="#8E8E8E"/><path d="m295.578125 388.066406h-25.570313c-7.109374 0-12.890624 5.785156-12.890624 12.898438v25.621094c0 7.109374 5.78125 12.898437 12.890624 12.898437h25.570313c7.109375 0 12.890625-5.789063 12.890625-12.898437v-25.621094c0-7.113282-5.78125-12.898438-12.890625-12.898438zm-2.25 36.273438h-21.070313v-21.128906h21.070313zm0 0" data-original="#000000" class="active-path" data-old_color="#000000" fill="#8E8E8E"/><path d="m216.964844 406.203125h-84.332032c-4.183593 0-7.570312 3.390625-7.570312 7.570313 0 4.179687 3.386719 7.570312 7.570312 7.570312h84.332032c4.179687 0 7.570312-3.390625 7.570312-7.570312 0-4.179688-3.390625-7.570313-7.570312-7.570313zm0 0" data-original="#000000" class="active-path" data-old_color="#000000" fill="#8E8E8E"/><path d="m415.613281 406.203125h-84.332031c-4.179688 0-7.570312 3.390625-7.570312 7.570313 0 4.179687 3.390624 7.570312 7.570312 7.570312h84.332031c4.183594 0 7.570313-3.390625 7.570313-7.570312 0-4.179688-3.386719-7.570313-7.570313-7.570313zm0 0" data-original="#000000" class="active-path" data-old_color="#000000" fill="#8E8E8E"/><path d="m451.824219 0h-423.667969c-15.25 0-27.65625 12.421875-27.65625 27.691406v456.589844c0 15.285156 12.40625 27.71875 27.65625 27.71875h423.667969c15.265625 0 27.6875-12.433594 27.6875-27.71875v-456.589844c0-15.269531-12.421875-27.691406-27.6875-27.691406zm0 496.859375h-423.667969c-6.898438 0-12.511719-5.644531-12.511719-12.578125v-396.453125h213.34375c4.179688 0 7.570313-3.386719 7.570313-7.570313 0-4.179687-3.390625-7.570312-7.570313-7.570312h-213.347656v-44.996094c0-6.917968 5.617187-12.550781 12.515625-12.550781h423.667969c6.917969 0 12.542969 5.632813 12.542969 12.550781v44.996094h-200.839844c-4.179688 0-7.570313 3.390625-7.570313 7.570312 0 4.183594 3.390625 7.570313 7.570313 7.570313h200.839844v396.453125c0 6.933594-5.625 12.578125-12.542969 12.578125zm0 0" data-original="#000000" class="active-path" data-old_color="#000000" fill="#8E8E8E"/><path d="m405.628906 133.617188h-329.632812c-9.667969 0-17.53125 7.882812-17.53125 17.574218v114.796875c0 9.691407 7.863281 17.578125 17.53125 17.578125h144.164062c4.179688 0 7.570313-3.390625 7.570313-7.574218 0-4.179688-3.390625-7.570313-7.570313-7.570313h-144.164062c-1.296875 0-2.386719-1.113281-2.386719-2.429687v-114.800782c0-1.320312 1.089844-2.433594 2.386719-2.433594h329.632812c1.308594 0 2.414063 1.113282 2.414063 2.433594v114.796875c0 1.320313-1.105469 2.433594-2.414063 2.433594h-150.898437c-4.179688 0-7.570313 3.390625-7.570313 7.570313 0 4.179687 3.390625 7.570312 7.570313 7.570312h150.898437c9.679688 0 17.554688-7.882812 17.554688-17.574219v-114.796875c0-9.691406-7.875-17.574218-17.554688-17.574218zm0 0" data-original="#000000" class="active-path" data-old_color="#000000" fill="#8E8E8E"/><path d="m110.167969 235.726562h261.3125c4.179687 0 7.570312-3.386718 7.570312-7.570312 0-4.179688-3.390625-7.570312-7.570312-7.570312h-261.3125c-4.179688 0-7.570313 3.390624-7.570313 7.570312 0 4.183594 3.390625 7.570312 7.570313 7.570312zm0 0" data-original="#000000" class="active-path" data-old_color="#000000" fill="#8E8E8E"/><path d="m110.167969 196.59375h261.3125c4.179687 0 7.570312-3.390625 7.570312-7.570312 0-4.183594-3.390625-7.574219-7.570312-7.574219h-261.3125c-4.179688 0-7.570313 3.390625-7.570313 7.574219 0 4.179687 3.390625 7.570312 7.570313 7.570312zm0 0" data-original="#000000" class="active-path" data-old_color="#000000" fill="#8E8E8E"/></g> </svg>
