<?xml version="1.0" encoding="UTF-8"?>
<!DOCTYPE svg PUBLIC "-//W3C//DTD SVG 1.1//EN" "http://www.w3.org/Graphics/SVG/1.1/DTD/svg11.dtd">
<!-- Creator: CorelDRAW 2017 -->
<svg xmlns="http://www.w3.org/2000/svg" xml:space="preserve" width="758px" height="500px" version="1.1" style="shape-rendering:geometricPrecision; text-rendering:geometricPrecision; image-rendering:optimizeQuality; fill-rule:evenodd; clip-rule:evenodd"
viewBox="0 0 758 500.46"
 xmlns:xlink="http://www.w3.org/1999/xlink">
 <defs>
  <style type="text/css">
   <![CDATA[
    .fil0 {fill:#FEFEFE}
   ]]>
  </style>
 </defs>
 <g id="Layer_x0020_1">
  <metadata id="CorelCorpID_0Corel-Layer"/>
  <g id="_1232462206096">
   <g>
    <g>
     <g id="_35_21_">
      <path class="fil0" d="M645.55 0.15c-63.39,-3.42 -109.18,53.97 -112.34,112.34 2.26,41.76 21.33,71.38 47.44,89.03 -25.31,38.02 -50.64,76.06 -75.96,114.09 -14.16,-7.4 -29.95,-11.89 -45.84,-12.73 -22.44,-1.22 -42.33,6.36 -58.33,19.06 -28.99,-32.39 -58,-64.77 -86.98,-97.16 4.99,-10.4 8.08,-21.76 8.7,-33.21 2.35,-43.61 -37.15,-75.16 -77.31,-77.32 -43.6,-2.35 -75.16,37.16 -77.32,77.32 0.66,12.07 3.7,23.06 8.42,32.88 -23.82,27.63 -47.65,55.24 -71.48,82.86 -10.52,-7.44 -23.41,-12.03 -37.97,-12.82 -37.5,-2.02 -64.63,31.97 -66.49,66.5 -2.02,37.5 31.98,64.62 66.49,66.47 37.5,2.02 64.63,-31.97 66.48,-66.47 -0.67,-12.6 -4.35,-23.82 -10.08,-33.49 18.15,-21.04 36.31,-42.09 54.48,-63.14 4.97,-5.78 9.94,-11.54 14.92,-17.29 13.44,12.71 31.49,20.68 52.54,21.82 21,1.13 39.17,-7.51 52.63,-21.2 28.04,31.34 56.09,62.66 84.12,93.99 -12.63,17.31 -20.41,38.52 -21.56,59.94 3.02,55.82 42.91,95.69 98.73,98.71 55.7,2.99 95.93,-47.43 98.71,-98.71 1.53,-28.58 -11.04,-53.02 -30.53,-70.5 26.01,-39.06 52.01,-78.12 78.02,-117.18 63.9,23.05 147.91,-10.75 152.81,-101.43 3.44,-63.41 -53.94,-109.22 -112.3,-112.36z" data-original="#000000" data-old_color="#000000"/>
     </g>
    </g>
   </g>
  </g>
 </g>
</svg>
