<?xml version="1.0" encoding="UTF-8"?>
<!DOCTYPE svg PUBLIC "-//W3C//DTD SVG 1.1//EN" "http://www.w3.org/Graphics/SVG/1.1/DTD/svg11.dtd">
<!-- Creator: CorelDRAW 2017 -->
<svg xmlns="http://www.w3.org/2000/svg" xml:space="preserve" width="749px" height="500px" version="1.1" style="shape-rendering:geometricPrecision; text-rendering:geometricPrecision; image-rendering:optimizeQuality; fill-rule:evenodd; clip-rule:evenodd"
viewBox="0 0 749 499.71"
 xmlns:xlink="http://www.w3.org/1999/xlink">
 <defs>
  <style type="text/css">
   <![CDATA[
    .str0 {stroke:#FEFEFE;stroke-width:15.29;stroke-miterlimit:2.61313}
    .fil0 {fill:none}
   ]]>
  </style>
 </defs>
 <g id="Layer_x0020_1">
  <metadata id="CorelCorpID_0Corel-Layer"/>
  <g id="_1232495451536">
   <g>
    <g>
     <g id="_35_21_">
      <path class="fil0 str0" d="M632.51 7.78c-61.36,-3.31 -105.68,52.25 -108.74,108.75 2.19,40.42 20.65,69.09 45.92,86.17 -24.49,36.8 -49.01,73.63 -73.53,110.44 -13.7,-7.17 -28.99,-11.5 -44.37,-12.33 -21.72,-1.17 -40.97,6.17 -56.46,18.46 -28.06,-31.35 -56.14,-62.7 -84.19,-94.05 4.83,-10.06 7.82,-21.06 8.42,-32.15 2.27,-42.21 -35.96,-72.75 -74.83,-74.84 -42.21,-2.28 -72.76,35.98 -74.84,74.84 0.63,11.69 3.57,22.32 8.14,31.84 -23.06,26.73 -46.12,53.46 -69.18,80.2 -10.2,-7.21 -22.67,-11.65 -36.76,-12.42 -36.3,-1.95 -62.56,30.95 -64.36,64.38 -1.96,36.29 30.96,62.54 64.36,64.34 36.3,1.96 62.56,-30.94 64.35,-64.34 -0.65,-12.2 -4.22,-23.06 -9.76,-32.42 17.57,-20.36 35.15,-40.74 52.74,-61.12 4.81,-5.59 9.62,-11.16 14.44,-16.74 13.01,12.31 30.48,20.03 50.85,21.13 20.34,1.09 37.92,-7.27 50.95,-20.52 27.14,30.33 54.29,60.65 81.43,90.98 -12.23,16.75 -19.76,37.28 -20.87,58.01 2.92,54.03 41.53,92.63 95.56,95.55 53.91,2.9 92.86,-45.91 95.55,-95.55 1.48,-27.66 -10.68,-51.32 -29.55,-68.23 25.18,-37.82 50.34,-75.63 75.52,-113.43 61.85,22.3 143.17,-10.4 147.92,-98.19 3.32,-61.37 -52.22,-105.71 -108.71,-108.76z" data-original="#000000" data-old_color="#000000"/>
     </g>
    </g>
   </g>
  </g>
 </g>
</svg>
