<?xml version="1.0" encoding="UTF-8"?>
<!DOCTYPE svg PUBLIC "-//W3C//DTD SVG 1.1//EN" "http://www.w3.org/Graphics/SVG/1.1/DTD/svg11.dtd">
<!-- Creator: CorelDRAW 2017 -->
<svg xmlns="http://www.w3.org/2000/svg" xml:space="preserve" width="500px" height="500px" version="1.1" style="shape-rendering:geometricPrecision; text-rendering:geometricPrecision; image-rendering:optimizeQuality; fill-rule:evenodd; clip-rule:evenodd"
viewBox="0 0 500 500"
 xmlns:xlink="http://www.w3.org/1999/xlink">
 <defs>
  <style type="text/css">
   <![CDATA[
    .fil0 {fill:#FEFEFE}
   ]]>
  </style>
 </defs>
 <g id="Layer_x0020_1">
  <metadata id="CorelCorpID_0Corel-Layer"/>
  <g id="_1232461546896">
   <g>
    <g>
     <g>
      <path class="fil0" d="M321.14 360.09c-5.26,-3.16 -10.66,-6.34 -16.05,-9.45 1.27,-10.81 1.27,-21.74 0,-32.53 5.42,-3.13 10.81,-6.3 16.04,-9.45 8.81,-5.29 12.48,-16.46 8.54,-25.98 0,0 0,0 0,0l-11.49 -27.75c-3.95,-9.52 -14.43,-14.82 -24.41,-12.33 -5.93,1.47 -11.99,3.04 -18.02,4.66 -6.74,-8.53 -14.47,-16.26 -23.01,-23 1.62,-6.04 3.19,-12.1 4.66,-18.03 2.49,-9.97 -2.81,-20.46 -12.33,-24.41l-27.75 -11.49c-9.52,-3.94 -20.69,-0.28 -25.98,8.53 -3.16,5.25 -6.33,10.65 -9.45,16.05 -10.81,-1.27 -21.74,-1.27 -32.54,0 -3.12,-5.43 -6.3,-10.82 -9.44,-16.05 -5.3,-8.8 -16.46,-12.47 -25.98,-8.53l-27.75 11.49c-9.52,3.95 -14.82,14.44 -12.33,24.41 1.47,5.94 3.04,12 4.66,18.02 -8.53,6.74 -16.26,14.48 -23,23.01 -6.05,-1.62 -12.11,-3.19 -18.03,-4.66 -9.98,-2.49 -20.47,2.82 -24.41,12.33l-11.49 27.75c-3.94,9.52 -0.27,20.69 8.53,25.98 5.25,3.15 10.65,6.33 16.05,9.45 -1.26,10.8 -1.27,21.74 0,32.53 -5.41,3.12 -10.8,6.3 -16.05,9.45 -8.8,5.29 -12.47,16.46 -8.53,25.98l11.49 27.75c3.94,9.51 14.43,14.82 24.41,12.33 5.92,-1.47 11.98,-3.04 18.02,-4.66 6.74,8.53 14.47,16.26 23.01,23 -1.62,6.04 -3.19,12.11 -4.66,18.03 -2.49,9.97 2.81,20.46 12.33,24.41l27.75 11.49c2.58,1.07 5.28,1.58 7.95,1.58 7.19,0 14.17,-3.69 18.04,-10.11 3.13,-5.21 6.3,-10.61 9.44,-16.05 10.81,1.27 21.75,1.27 32.54,0.01 3.1,5.38 6.28,10.77 9.44,16.04 5.3,8.81 16.46,12.48 25.98,8.53l27.75 -11.49c9.52,-3.94 14.82,-14.44 12.34,-24.41 -1.47,-5.89 -3.04,-11.95 -4.67,-18.02 8.53,-6.74 16.26,-14.47 23,-23.01 6.04,1.62 12.1,3.19 18.03,4.66 9.97,2.49 20.47,-2.81 24.41,-12.33l11.49 -27.75c3.94,-9.52 0.27,-20.69 -8.53,-25.98zm-23.18 44.04c-5.7,-1.42 -11.51,-2.93 -17.28,-4.49 -8.18,-2.2 -16.81,0.68 -21.99,7.33 -5.96,7.65 -12.85,14.54 -20.48,20.48 -6.65,5.18 -9.52,13.81 -7.32,21.98 1.57,5.82 3.08,11.62 4.49,17.28l-25.5 10.57c-3.04,-5.06 -6.08,-10.24 -9.05,-15.4 -4.22,-7.33 -12.36,-11.4 -20.72,-10.36 -9.6,1.19 -19.34,1.19 -28.95,-0.01 -8.39,-1.04 -16.51,3.03 -20.74,10.37 -3.01,5.21 -6.04,10.39 -9.04,15.4l-25.51 -10.57c1.42,-5.69 2.93,-11.5 4.49,-17.28 2.2,-8.18 -0.68,-16.81 -7.33,-22 -7.65,-5.95 -14.54,-12.84 -20.48,-20.47 -5.18,-6.65 -13.81,-9.52 -21.98,-7.32 -5.79,1.56 -11.6,3.07 -17.28,4.49l-10.57 -25.5c5.04,-3.03 10.21,-6.06 15.39,-9.05 7.34,-4.22 11.41,-12.35 10.37,-20.71 -1.19,-9.61 -1.19,-19.35 0.01,-28.96 1.04,-8.37 -3.03,-16.51 -10.37,-20.74 -5.18,-2.98 -10.35,-6.02 -15.4,-9.05l10.56 -25.51c5.69,1.43 11.5,2.94 17.29,4.5 8.18,2.2 16.81,-0.68 21.99,-7.33 5.96,-7.65 12.85,-14.54 20.48,-20.48 6.65,-5.18 9.52,-13.81 7.32,-21.99 -1.56,-5.76 -3.07,-11.57 -4.5,-17.28l25.51 -10.56c3.01,5.02 6.05,10.2 9.04,15.39 4.23,7.34 12.37,11.42 20.72,10.37 9.6,-1.19 19.34,-1.19 28.97,0.01 8.37,1.04 16.5,-3.03 20.73,-10.37 2.98,-5.18 6.02,-10.36 9.04,-15.4l25.51 10.56c-1.42,5.7 -2.93,11.51 -4.49,17.29 -2.2,8.18 0.67,16.81 7.33,21.99 7.64,5.95 14.54,12.84 20.48,20.48 5.18,6.64 13.8,9.52 21.98,7.31 5.78,-1.55 11.59,-3.06 17.28,-4.49l10.57 25.51c-5.03,3.02 -10.21,6.05 -15.4,9.04 -7.34,4.23 -11.41,12.36 -10.37,20.72 1.2,9.6 1.19,19.34 0,28.96 -1.04,8.37 3.03,16.51 10.37,20.74 5.17,2.97 10.34,6.01 15.4,9.04l-10.57 25.51z" data-original="#000000" data-old_color="#000000"/>
     </g>
    </g>
    <g>
     <g>
      <path class="fil0" d="M236.1 305.19c0,0 0,0 -0.01,-0.01 -16.09,-38.85 -60.79,-57.37 -99.65,-41.28 -38.86,16.1 -57.38,60.81 -41.28,99.66 7.79,18.83 22.45,33.49 41.28,41.28 9.41,3.9 19.3,5.85 29.19,5.85 9.88,0 19.77,-1.95 29.19,-5.85 38.85,-16.09 57.37,-60.8 41.28,-99.65zm-49.85 78.98c-13.3,5.51 -27.95,5.51 -41.25,0 -13.3,-5.51 -23.66,-15.87 -29.17,-29.17 -11.37,-27.46 1.72,-59.05 29.17,-70.42 6.73,-2.78 13.69,-4.1 20.56,-4.1 21.16,0 41.27,12.54 49.86,33.27 11.37,27.46 -1.71,59.04 -29.17,70.42z" data-original="#000000" data-old_color="#000000"/>
     </g>
    </g>
    <g>
     <g>
      <path class="fil0" d="M484.91 98.57c-3.86,-0.58 -7.83,-1.14 -11.82,-1.67 -2.02,-6.7 -4.71,-13.19 -8.02,-19.36 2.44,-3.2 4.85,-6.4 7.18,-9.55 5.17,-6.99 4.42,-16.91 -1.74,-23.07l-15.44 -15.43c-6.16,-6.16 -16.07,-6.91 -23.07,-1.74 -3.15,2.34 -6.36,4.75 -9.55,7.18 -6.16,-3.31 -12.65,-6 -19.35,-8.02 -0.53,-3.99 -1.09,-7.96 -1.67,-11.82 -1.29,-8.6 -8.83,-15.09 -17.54,-15.09l-21.83 0c-8.72,0 -16.26,6.49 -17.54,15.08 -0.58,3.87 -1.14,7.83 -1.68,11.83 -6.69,2.02 -13.19,4.71 -19.35,8.02 -3.19,-2.43 -6.39,-4.84 -9.55,-7.18 -6.99,-5.17 -16.91,-4.42 -23.07,1.74l-15.43 15.43c-6.17,6.16 -6.92,16.08 -1.74,23.07 2.32,3.15 4.73,6.36 7.18,9.55 -3.32,6.17 -6.01,12.66 -8.02,19.36 -4,0.53 -7.97,1.09 -11.83,1.67 -8.6,1.29 -15.09,8.83 -15.09,17.54l0 21.83c0,8.72 6.49,16.26 15.09,17.54 3.86,0.58 7.83,1.14 11.83,1.68 2.01,6.69 4.7,13.18 8.02,19.35 -2.44,3.2 -4.86,6.4 -7.19,9.55 -5.17,6.99 -4.42,16.91 1.74,23.07l15.44 15.44c6.16,6.16 16.08,6.9 23.07,1.73 3.16,-2.33 6.36,-4.74 9.55,-7.18 6.16,3.32 12.66,6.01 19.35,8.02 0.54,4 1.1,7.97 1.68,11.83 1.28,8.6 8.82,15.09 17.54,15.09l21.83 0c8.71,0 16.25,-6.49 17.54,-15.09 0.58,-3.86 1.14,-7.83 1.67,-11.83 6.7,-2.01 13.19,-4.7 19.35,-8.02 3.19,2.44 6.4,4.85 9.55,7.18 7,5.18 16.91,4.43 23.07,-1.73l15.44 -15.44c6.16,-6.16 6.91,-16.08 1.74,-23.07 -2.33,-3.15 -4.74,-6.36 -7.18,-9.55 3.31,-6.16 6,-12.65 8.02,-19.35 3.99,-0.54 7.96,-1.1 11.82,-1.68 8.6,-1.28 15.09,-8.82 15.09,-17.54l0 -21.83c0,-8.71 -6.49,-16.25 -15.09,-17.54zm-6.17 36.33c-3.51,0.51 -7.09,1.01 -10.68,1.47 -7.1,0.93 -12.92,5.97 -14.81,12.85 -1.81,6.58 -4.45,12.93 -7.82,18.87 -3.53,6.2 -2.98,13.88 1.38,19.56 2.21,2.87 4.39,5.75 6.52,8.6l-11.14 11.13c-2.86,-2.13 -5.74,-4.31 -8.6,-6.51 -5.67,-4.37 -13.35,-4.91 -19.56,-1.39 -5.94,3.38 -12.29,6.01 -18.87,7.83 -6.88,1.89 -11.92,7.7 -12.84,14.8 -0.47,3.6 -0.96,7.18 -1.47,10.68l-15.75 0c-0.51,-3.5 -1.01,-7.08 -1.47,-10.67 -0.93,-7.1 -5.97,-12.92 -12.85,-14.81 -6.58,-1.82 -12.92,-4.45 -18.87,-7.82 -6.21,-3.53 -13.89,-2.99 -19.56,1.38 -2.86,2.2 -5.74,4.38 -8.6,6.51l-11.14 -11.13c2.13,-2.86 4.31,-5.74 6.52,-8.6 4.36,-5.68 4.91,-13.36 1.38,-19.56 -3.37,-5.95 -6,-12.3 -7.82,-18.88 -1.89,-6.87 -7.71,-11.91 -14.81,-12.84 -3.59,-0.47 -7.17,-0.96 -10.68,-1.47l0 -15.75c3.51,-0.51 7.09,-1 10.68,-1.47 7.1,-0.93 12.92,-5.97 14.81,-12.84 1.81,-6.58 4.45,-12.93 7.82,-18.88 3.53,-6.2 2.98,-13.88 -1.38,-19.56 -2.21,-2.86 -4.39,-5.75 -6.52,-8.59l11.14 -11.14c2.86,2.13 5.74,4.32 8.59,6.51 5.68,4.37 13.36,4.92 19.57,1.39 5.94,-3.37 12.29,-6.01 18.87,-7.82 6.88,-1.9 11.92,-7.71 12.84,-14.81 0.47,-3.59 0.97,-7.17 1.47,-10.68l15.76 0c0.51,3.51 1,7.09 1.47,10.68 0.92,7.1 5.96,12.92 12.84,14.81 6.58,1.81 12.93,4.44 18.87,7.82 6.21,3.53 13.89,2.98 19.56,-1.39 2.86,-2.19 5.74,-4.38 8.6,-6.51l11.14 11.14c-2.13,2.85 -4.31,5.73 -6.52,8.6 -4.36,5.67 -4.91,13.35 -1.38,19.56 3.37,5.94 6.01,12.29 7.82,18.87 1.89,6.88 7.71,11.92 14.81,12.84 3.59,0.47 7.17,0.96 10.68,1.47l0 15.75z" data-original="#000000" data-old_color="#000000"/>
     </g>
    </g>
    <g>
     <g>
      <path class="fil0" d="M372.97 81.71c-24.98,0 -45.31,20.33 -45.31,45.32 0,24.98 20.33,45.31 45.31,45.31 24.99,0 45.32,-20.33 45.32,-45.31 0,-24.99 -20.33,-45.32 -45.32,-45.32zm0 70.49c-13.88,0 -25.17,-11.29 -25.17,-25.17 0,-13.88 11.29,-25.17 25.17,-25.17 13.88,0 25.17,11.29 25.17,25.17 0,13.88 -11.29,25.17 -25.17,25.17z" data-original="#000000" data-old_color="#000000"/>
     </g>
    </g>
   </g>
  </g>
 </g>
</svg>
