<?xml version="1.0" encoding="UTF-8"?>
<!DOCTYPE svg PUBLIC "-//W3C//DTD SVG 1.1//EN" "http://www.w3.org/Graphics/SVG/1.1/DTD/svg11.dtd">
<!-- Creator: CorelDRAW 2017 -->
<svg xmlns="http://www.w3.org/2000/svg" xml:space="preserve" width="250px" height="119px" version="1.1" style="shape-rendering:geometricPrecision; text-rendering:geometricPrecision; image-rendering:optimizeQuality; fill-rule:evenodd; clip-rule:evenodd"
viewBox="0 0 250 118.77"
 xmlns:xlink="http://www.w3.org/1999/xlink">
 <defs>
  <style type="text/css">
   <![CDATA[
    .fil1 {fill:#A9CF45;fill-rule:nonzero}
    .fil0 {fill:#4F5B64;fill-rule:nonzero}
   ]]>
  </style>
 </defs>
 <g id="Layer_x0020_1">
  <metadata id="CorelCorpID_0Corel-Layer"/>
  <g id="_1232313718128">
   <g>
    <path class="fil0" d="M64.8 25.7l-6.18 -12.3 -0.22 4.13c-0.07,1.2 -0.13,2.39 -0.18,3.58 -0.06,1.19 -0.15,2.31 -0.28,3.38 -0.14,1.07 -0.36,2.07 -0.65,2.98 -0.29,0.92 -0.71,1.71 -1.27,2.38 -0.56,0.67 -1.28,1.19 -2.16,1.57 -0.89,0.38 -1.99,0.56 -3.32,0.56 -0.59,0 -1.15,-0.04 -1.69,-0.14 -0.54,-0.1 -1.01,-0.23 -1.42,-0.4 -0.42,-0.18 -0.75,-0.38 -0.99,-0.61 -0.25,-0.23 -0.37,-0.49 -0.37,-0.77 0,-0.2 0.03,-0.41 0.09,-0.62 0.06,-0.22 0.14,-0.41 0.26,-0.59 0.11,-0.18 0.25,-0.32 0.42,-0.42 0.16,-0.11 0.35,-0.17 0.55,-0.17 0.13,0 0.24,0.06 0.34,0.19 0.1,0.12 0.2,0.28 0.3,0.47 0.1,0.19 0.22,0.39 0.35,0.61 0.13,0.22 0.3,0.42 0.51,0.61 0.22,0.19 0.47,0.35 0.77,0.47 0.29,0.13 0.67,0.19 1.12,0.19 0.87,0 1.62,-0.15 2.22,-0.45 0.6,-0.31 1.09,-0.75 1.48,-1.32 0.39,-0.57 0.69,-1.26 0.9,-2.07 0.2,-0.82 0.36,-1.74 0.46,-2.77 0.05,-0.57 0.09,-1.12 0.14,-1.65 0.05,-0.54 0.09,-1.06 0.13,-1.59 0.05,-0.53 0.09,-1.06 0.13,-1.61 0.04,-0.54 0.08,-1.12 0.13,-1.72 0.06,-0.88 0.11,-1.72 0.15,-2.52 0.05,-0.8 0.09,-1.53 0.12,-2.22 0.02,-0.69 0.05,-1.31 0.07,-1.86 0.01,-0.54 0.03,-1.02 0.04,-1.42 -0.2,-0.4 -0.37,-0.72 -0.51,-0.97 -0.16,-0.24 -0.31,-0.44 -0.47,-0.57 -0.16,-0.13 -0.34,-0.22 -0.53,-0.26 -0.19,-0.05 -0.43,-0.07 -0.7,-0.07 -0.23,0 -0.52,0.04 -0.85,0.13 -0.34,0.08 -0.69,0.2 -1.05,0.37 -0.36,0.16 -0.72,0.35 -1.09,0.59 -0.35,0.23 -0.68,0.5 -0.96,0.81 -0.28,0.3 -0.51,0.63 -0.68,1 -0.18,0.36 -0.27,0.76 -0.27,1.18 0,0.37 0.05,0.66 0.15,0.88 0.09,0.22 0.21,0.38 0.34,0.49 0.14,0.1 0.26,0.18 0.4,0.2 0.13,0.03 0.22,0.05 0.28,0.05 0.29,0 0.52,-0.05 0.7,-0.15 0.19,-0.09 0.36,-0.2 0.5,-0.31 0.15,-0.11 0.29,-0.21 0.42,-0.31 0.13,-0.1 0.28,-0.14 0.46,-0.14 0.14,0 0.28,0.03 0.43,0.09 0.16,0.07 0.3,0.16 0.43,0.31 0.14,0.13 0.25,0.31 0.34,0.53 0.09,0.23 0.14,0.5 0.14,0.82 0,0.46 -0.09,0.85 -0.27,1.18 -0.18,0.34 -0.41,0.61 -0.69,0.84 -0.28,0.22 -0.6,0.39 -0.96,0.49 -0.36,0.11 -0.71,0.17 -1.07,0.17 -0.55,0 -1.04,-0.1 -1.48,-0.28 -0.44,-0.2 -0.82,-0.46 -1.13,-0.79 -0.31,-0.33 -0.54,-0.72 -0.7,-1.17 -0.17,-0.44 -0.24,-0.92 -0.24,-1.42 0,-1.19 0.27,-2.23 0.82,-3.12 0.55,-0.88 1.27,-1.63 2.16,-2.22 0.9,-0.6 1.9,-1.04 3.04,-1.33 1.12,-0.29 2.27,-0.44 3.44,-0.44 0.93,0 1.72,0.1 2.35,0.28 0.63,0.2 1.16,0.45 1.58,0.76 0.42,0.32 0.77,0.69 1.05,1.11 0.27,0.42 0.52,0.87 0.75,1.34l4.53 9.2c1.18,-2.32 2.25,-4.4 3.22,-6.24 0.97,-1.84 1.86,-3.45 2.69,-4.85 0.82,-1.4 1.59,-2.59 2.31,-3.57 0.71,-0.99 1.4,-1.79 2.07,-2.41 0.68,-0.63 1.34,-1.08 1.99,-1.37 0.66,-0.28 1.35,-0.43 2.06,-0.43 0.61,0 1.1,0.13 1.47,0.39 0.38,0.25 0.57,0.64 0.57,1.16 0,0.45 -0.08,0.84 -0.22,1.13 -0.15,0.3 -0.36,0.45 -0.62,0.45 -0.22,0 -0.38,-0.09 -0.5,-0.25 -0.11,-0.17 -0.22,-0.35 -0.34,-0.54 -0.1,-0.2 -0.24,-0.38 -0.4,-0.54 -0.16,-0.17 -0.39,-0.25 -0.7,-0.25 -0.18,0 -0.41,0.05 -0.67,0.15 -0.26,0.1 -0.53,0.26 -0.82,0.47 -0.28,0.2 -0.55,0.46 -0.83,0.77 -0.27,0.31 -0.51,0.67 -0.72,1.08 -0.2,0.41 -0.37,0.88 -0.48,1.41 -0.12,0.52 -0.15,1.1 -0.1,1.73 0.04,0.72 0.11,1.57 0.18,2.53 0.09,0.97 0.17,2.01 0.27,3.11 0.1,1.11 0.2,2.25 0.31,3.43 0.11,1.17 0.22,2.33 0.34,3.48 0.11,1.15 0.22,2.24 0.33,3.3 0.11,1.05 0.21,2 0.3,2.86 0.09,0.85 0.18,1.57 0.26,2.16 0.08,0.59 0.14,0.99 0.19,1.21 0.07,0.33 0.15,0.6 0.27,0.8 0.12,0.2 0.32,0.3 0.62,0.3 0.31,0 0.6,-0.06 0.88,-0.17 0.27,-0.1 0.52,-0.21 0.73,-0.33l0.28 0.64c-0.21,0.14 -0.47,0.31 -0.79,0.5 -0.31,0.19 -0.67,0.37 -1.07,0.54 -0.41,0.18 -0.86,0.32 -1.35,0.43 -0.48,0.12 -1,0.17 -1.57,0.17 -0.78,0 -1.41,-0.09 -1.87,-0.29 -0.45,-0.21 -0.8,-0.46 -1.05,-0.74 -0.25,-0.3 -0.42,-0.61 -0.5,-0.93 -0.09,-0.33 -0.15,-0.63 -0.2,-0.89 -0.1,-0.58 -0.21,-1.28 -0.33,-2.11 -0.11,-0.82 -0.22,-1.7 -0.33,-2.65 -0.11,-0.95 -0.21,-1.92 -0.32,-2.92 -0.1,-1 -0.2,-1.98 -0.28,-2.93 -0.09,-0.96 -0.16,-1.86 -0.23,-2.71 -0.07,-0.84 -0.13,-1.58 -0.17,-2.21 -0.35,0.56 -0.66,1.1 -0.96,1.62 -0.28,0.52 -0.57,1.05 -0.85,1.59 -0.27,0.55 -0.55,1.12 -0.84,1.71 -0.28,0.6 -0.58,1.25 -0.9,1.94 -0.31,0.7 -0.65,1.47 -1.03,2.31 -0.37,0.83 -0.78,1.76 -1.22,2.79l-1.69 0zm33.07 -8.98c0,2.1 -0.2,4.12 -0.61,6.08 -0.41,1.95 -0.97,3.78 -1.68,5.49 -0.72,1.71 -1.57,3.27 -2.55,4.68 -0.99,1.42 -2.06,2.63 -3.22,3.63 -1.15,1.01 -2.37,1.8 -3.66,2.36 -1.29,0.56 -2.59,0.84 -3.91,0.84 -1,0 -1.78,-0.17 -2.33,-0.51 -0.55,-0.34 -0.82,-0.79 -0.82,-1.36 0,-0.22 0.03,-0.43 0.1,-0.64 0.07,-0.2 0.16,-0.39 0.28,-0.55 0.11,-0.16 0.25,-0.28 0.41,-0.38 0.15,-0.1 0.33,-0.15 0.51,-0.15 0.22,0 0.4,0.11 0.54,0.33 0.14,0.21 0.29,0.45 0.46,0.71 0.16,0.25 0.35,0.49 0.58,0.71 0.23,0.22 0.54,0.33 0.94,0.33 0.52,0 1.06,-0.09 1.62,-0.27 0.56,-0.18 1.12,-0.43 1.69,-0.76 0.57,-0.34 1.13,-0.74 1.7,-1.21 0.56,-0.48 1.12,-1.01 1.67,-1.59 -0.32,-1.16 -0.69,-2.42 -1.11,-3.79 -0.41,-1.36 -0.85,-2.74 -1.31,-4.12 -0.47,-1.39 -0.95,-2.73 -1.43,-4.01 -0.49,-1.29 -0.96,-2.43 -1.43,-3.43 -0.46,-1 -0.91,-1.79 -1.33,-2.4 -0.44,-0.59 -0.82,-0.89 -1.15,-0.89 -0.21,0 -0.38,0.03 -0.51,0.1 -0.11,0.07 -0.25,0.17 -0.41,0.29l-0.35 -0.43c0.23,-0.19 0.47,-0.4 0.72,-0.6 0.25,-0.21 0.55,-0.4 0.89,-0.57 0.35,-0.17 0.75,-0.31 1.21,-0.42 0.46,-0.11 1,-0.16 1.65,-0.16 0.69,0 1.35,0.16 1.94,0.47 0.61,0.31 1.15,0.89 1.64,1.74 0.36,0.63 0.73,1.39 1.11,2.27 0.38,0.88 0.77,1.87 1.16,2.96 0.39,1.08 0.78,2.26 1.17,3.52 0.4,1.26 0.8,2.59 1.2,3.98 0.71,-1.49 1.28,-3.07 1.72,-4.73 0.43,-1.67 0.65,-3.38 0.65,-5.15 0,-0.62 -0.04,-1.16 -0.12,-1.61 -0.08,-0.44 -0.17,-0.83 -0.28,-1.14 -0.1,-0.32 -0.19,-0.59 -0.27,-0.81 -0.08,-0.22 -0.12,-0.42 -0.12,-0.59 0,-0.17 0.07,-0.32 0.21,-0.44 0.13,-0.12 0.3,-0.21 0.49,-0.28 0.2,-0.07 0.4,-0.12 0.6,-0.15 0.2,-0.03 0.37,-0.04 0.5,-0.04 0.31,0 0.55,0.06 0.72,0.19 0.16,0.13 0.28,0.3 0.36,0.54 0.08,0.24 0.13,0.52 0.14,0.85 0.01,0.33 0.02,0.7 0.02,1.11zm27.67 9.12c0.26,-0.68 0.52,-1.4 0.79,-2.18 0.28,-0.78 0.55,-1.58 0.81,-2.41 0.27,-0.83 0.52,-1.67 0.77,-2.53 0.24,-0.85 0.46,-1.68 0.66,-2.51l-1.67 -5.46c-0.11,-0.38 -0.1,-0.71 0.03,-0.99 0.13,-0.28 0.34,-0.51 0.62,-0.7 0.29,-0.19 0.63,-0.33 1.02,-0.42 0.4,-0.1 0.82,-0.14 1.25,-0.14 0.38,0 0.72,0.02 1.02,0.06 0.29,0.04 0.55,0.11 0.77,0.21 0.23,0.11 0.41,0.25 0.56,0.44 0.15,0.19 0.27,0.44 0.36,0.73l4.93 15.87c0.27,-0.71 0.54,-1.48 0.82,-2.31 0.29,-0.82 0.57,-1.67 0.85,-2.53 0.27,-0.88 0.54,-1.75 0.78,-2.65 0.25,-0.89 0.48,-1.77 0.66,-2.63 0.2,-0.85 0.34,-1.67 0.45,-2.46 0.11,-0.78 0.16,-1.5 0.16,-2.15 0,-0.76 -0.04,-1.39 -0.15,-1.89 -0.1,-0.51 -0.22,-0.93 -0.35,-1.27 -0.13,-0.33 -0.25,-0.61 -0.35,-0.83 -0.11,-0.22 -0.15,-0.42 -0.15,-0.6 0,-0.24 0.05,-0.44 0.18,-0.61 0.13,-0.17 0.29,-0.3 0.48,-0.42 0.2,-0.11 0.41,-0.2 0.64,-0.24 0.23,-0.06 0.44,-0.09 0.65,-0.09 0.46,0 0.85,0.07 1.17,0.21 0.32,0.14 0.54,0.37 0.67,0.71 0.06,0.17 0.1,0.35 0.13,0.54 0.04,0.18 0.07,0.37 0.08,0.55 0.02,0.17 0.03,0.34 0.03,0.5 0,0.15 0,0.27 0,0.36 0,0.49 -0.08,1.14 -0.24,1.98 -0.15,0.83 -0.36,1.78 -0.63,2.82 -0.27,1.05 -0.57,2.17 -0.92,3.37 -0.34,1.21 -0.7,2.42 -1.07,3.64 -0.37,1.22 -0.75,2.41 -1.13,3.58 -0.37,1.16 -0.73,2.24 -1.07,3.23 -0.33,0.99 -0.63,1.86 -0.89,2.61 -0.26,0.75 -0.46,1.31 -0.59,1.68 -0.1,0.27 -0.22,0.49 -0.37,0.65 -0.16,0.16 -0.34,0.28 -0.53,0.37 -0.2,0.08 -0.42,0.14 -0.65,0.16 -0.24,0.02 -0.49,0.03 -0.74,0.03 -0.45,0 -0.83,-0.04 -1.12,-0.14 -0.3,-0.08 -0.52,-0.2 -0.69,-0.34 -0.18,-0.14 -0.3,-0.28 -0.38,-0.44 -0.09,-0.17 -0.15,-0.31 -0.19,-0.43l-3.42 -11.23c-0.38,1.25 -0.76,2.48 -1.15,3.68 -0.39,1.21 -0.76,2.32 -1.1,3.34 -0.36,1.02 -0.67,1.91 -0.94,2.67 -0.28,0.76 -0.49,1.32 -0.64,1.68 -0.11,0.27 -0.25,0.49 -0.42,0.65 -0.17,0.16 -0.35,0.28 -0.55,0.37 -0.2,0.08 -0.41,0.14 -0.64,0.16 -0.23,0.02 -0.47,0.03 -0.71,0.03 -0.45,0 -0.83,-0.04 -1.12,-0.14 -0.29,-0.08 -0.52,-0.2 -0.7,-0.34 -0.17,-0.14 -0.3,-0.28 -0.38,-0.44 -0.09,-0.17 -0.15,-0.31 -0.2,-0.43l-6.11 -20.43c-0.12,-0.39 -0.24,-0.72 -0.37,-0.99 -0.13,-0.27 -0.29,-0.49 -0.48,-0.66 -0.19,-0.17 -0.42,-0.3 -0.69,-0.38 -0.27,-0.08 -0.59,-0.12 -0.99,-0.12 -0.31,0 -0.69,0.08 -1.11,0.23 -0.42,0.16 -0.83,0.39 -1.21,0.69 -0.38,0.3 -0.71,0.68 -0.97,1.13 -0.26,0.45 -0.4,0.98 -0.4,1.57 0,0.37 0.05,0.66 0.15,0.88 0.1,0.22 0.21,0.38 0.33,0.49 0.13,0.1 0.26,0.18 0.39,0.2 0.13,0.03 0.23,0.05 0.29,0.05 0.28,0 0.51,-0.05 0.7,-0.15 0.18,-0.09 0.35,-0.2 0.5,-0.31 0.14,-0.11 0.28,-0.21 0.42,-0.31 0.13,-0.1 0.28,-0.14 0.45,-0.14 0.14,0 0.28,0.03 0.44,0.09 0.15,0.07 0.3,0.16 0.43,0.31 0.13,0.13 0.24,0.31 0.33,0.53 0.1,0.23 0.14,0.5 0.14,0.82 0,0.46 -0.09,0.85 -0.27,1.18 -0.17,0.34 -0.4,0.61 -0.68,0.84 -0.28,0.22 -0.6,0.39 -0.96,0.49 -0.37,0.11 -0.72,0.17 -1.08,0.17 -0.55,0 -1.03,-0.1 -1.47,-0.3 -0.42,-0.19 -0.78,-0.45 -1.08,-0.79 -0.29,-0.32 -0.51,-0.71 -0.66,-1.15 -0.16,-0.44 -0.24,-0.92 -0.24,-1.42 0,-1.19 0.23,-2.23 0.69,-3.12 0.46,-0.88 1.06,-1.63 1.82,-2.22 0.76,-0.6 1.61,-1.04 2.57,-1.33 0.96,-0.29 1.95,-0.44 2.97,-0.44 1.15,0 2.08,0.18 2.82,0.52 0.73,0.36 1.33,0.81 1.78,1.35 0.45,0.55 0.81,1.17 1.07,1.85 0.26,0.68 0.5,1.35 0.7,2.02l4.29 13.92zm24.56 -1.87c0,0.37 0.05,0.77 0.16,1.19 0.11,0.43 0.26,0.86 0.48,1.3 0.2,0.43 0.45,0.85 0.76,1.24 0.3,0.4 0.65,0.75 1.05,1.06 0.39,0.31 0.83,0.55 1.31,0.74 0.48,0.18 1.01,0.27 1.58,0.27 0.4,0 0.77,-0.04 1.11,-0.14 0.34,-0.09 0.67,-0.21 0.97,-0.37 0.29,-0.16 0.58,-0.35 0.85,-0.56 0.28,-0.21 0.55,-0.44 0.83,-0.68l0.43 0.41c-0.27,0.36 -0.6,0.75 -1.02,1.17 -0.41,0.42 -0.91,0.82 -1.49,1.19 -0.58,0.37 -1.27,0.68 -2.04,0.93 -0.78,0.25 -1.67,0.37 -2.66,0.37 -1,0 -1.97,-0.18 -2.91,-0.54 -0.95,-0.36 -1.79,-0.9 -2.52,-1.62 -0.73,-0.72 -1.32,-1.63 -1.76,-2.7 -0.44,-1.08 -0.66,-2.34 -0.66,-3.78 0,-1.04 0.13,-1.99 0.39,-2.86 0.27,-0.87 0.62,-1.66 1.08,-2.35 0.45,-0.7 0.97,-1.32 1.58,-1.84 0.6,-0.53 1.23,-0.96 1.89,-1.32 0.67,-0.34 1.34,-0.61 2.04,-0.79 0.69,-0.17 1.36,-0.26 2,-0.26 0.85,0 1.58,0.09 2.21,0.27 0.63,0.19 1.16,0.43 1.57,0.74 0.42,0.31 0.73,0.67 0.94,1.08 0.21,0.4 0.31,0.83 0.31,1.27 0,0.54 -0.16,1.02 -0.47,1.46 -0.3,0.42 -0.72,0.8 -1.23,1.12l-6.78 4zm3.45 -3.49c0.15,-0.09 0.27,-0.17 0.37,-0.26 0.1,-0.09 0.17,-0.19 0.23,-0.31 0.06,-0.12 0.1,-0.27 0.13,-0.45 0.02,-0.17 0.04,-0.4 0.04,-0.66 0,-0.28 -0.03,-0.6 -0.09,-0.95 -0.07,-0.35 -0.17,-0.68 -0.32,-0.99 -0.15,-0.31 -0.34,-0.56 -0.57,-0.77 -0.22,-0.21 -0.5,-0.31 -0.82,-0.31 -0.41,0 -0.76,0.12 -1.06,0.37 -0.29,0.25 -0.53,0.56 -0.72,0.95 -0.19,0.39 -0.34,0.83 -0.44,1.33 -0.11,0.5 -0.2,1 -0.26,1.51 -0.05,0.5 -0.08,0.98 -0.1,1.44 -0.01,0.47 -0.01,0.86 -0.01,1.18l3.62 -2.08zm18.06 2.82c0,-1 -0.05,-1.93 -0.16,-2.81 -0.1,-0.87 -0.27,-1.64 -0.5,-2.3 -0.23,-0.66 -0.52,-1.18 -0.87,-1.56 -0.36,-0.39 -0.79,-0.57 -1.29,-0.57 -0.39,0 -0.71,0.09 -0.98,0.28 -0.27,0.19 -0.5,0.4 -0.67,0.64 -0.17,0.24 -0.29,0.48 -0.38,0.71 -0.07,0.24 -0.11,0.39 -0.11,0.48l0 5.13c0,2.5 0.21,4.31 0.62,5.44 0.42,1.13 1.03,1.7 1.85,1.7 0.85,0 1.49,-0.58 1.89,-1.73 0.39,-1.16 0.6,-2.96 0.6,-5.41zm-10.23 -15.14c0,-0.34 -0.08,-0.62 -0.24,-0.87 -0.15,-0.25 -0.41,-0.37 -0.78,-0.37 -0.2,0 -0.36,0.03 -0.51,0.09 -0.14,0.07 -0.29,0.16 -0.45,0.29l-0.34 -0.41c0.26,-0.22 0.55,-0.43 0.88,-0.65 0.33,-0.21 0.68,-0.4 1.06,-0.56 0.38,-0.15 0.78,-0.29 1.22,-0.39 0.43,-0.1 0.89,-0.16 1.37,-0.16 0.66,0 1.2,0.1 1.6,0.31 0.41,0.2 0.72,0.44 0.93,0.74 0.22,0.28 0.36,0.6 0.42,0.94 0.07,0.33 0.11,0.65 0.11,0.93l0 7.66c0.13,-0.12 0.31,-0.28 0.53,-0.47 0.22,-0.19 0.49,-0.37 0.82,-0.56 0.33,-0.18 0.73,-0.33 1.19,-0.46 0.47,-0.13 1.01,-0.19 1.65,-0.19 0.73,0 1.46,0.17 2.19,0.5 0.74,0.34 1.39,0.87 1.98,1.59 0.58,0.72 1.05,1.65 1.42,2.78 0.37,1.14 0.55,2.5 0.55,4.09 0,1.25 -0.17,2.43 -0.51,3.54 -0.33,1.11 -0.83,2.08 -1.5,2.91 -0.66,0.83 -1.49,1.48 -2.49,1.96 -0.99,0.48 -2.15,0.72 -3.47,0.72 -1.43,0 -2.63,-0.23 -3.61,-0.69 -0.98,-0.47 -1.77,-1.09 -2.36,-1.87 -0.6,-0.79 -1.02,-1.7 -1.28,-2.74 -0.25,-1.04 -0.38,-2.14 -0.38,-3.3l0 -15.36zm24.43 7.24c-0.27,0 -0.52,0.04 -0.75,0.11 -0.24,0.07 -0.44,0.18 -0.63,0.33 -0.18,0.15 -0.32,0.35 -0.43,0.59 -0.1,0.23 -0.15,0.51 -0.15,0.83 0,0.44 0.16,0.89 0.49,1.33 0.33,0.44 0.73,0.89 1.22,1.37 0.48,0.47 1.01,0.97 1.58,1.48 0.56,0.51 1.09,1.05 1.57,1.61 0.49,0.57 0.9,1.17 1.22,1.81 0.33,0.64 0.5,1.33 0.5,2.06 0,0.83 -0.14,1.56 -0.43,2.2 -0.28,0.64 -0.68,1.18 -1.2,1.63 -0.52,0.45 -1.15,0.79 -1.88,1.02 -0.74,0.24 -1.56,0.35 -2.47,0.35 -0.79,0 -1.51,-0.11 -2.15,-0.33 -0.63,-0.22 -1.21,-0.5 -1.7,-0.83 -0.5,-0.32 -0.93,-0.67 -1.28,-1.03 -0.36,-0.37 -0.63,-0.7 -0.83,-1l0.6 -0.43c0.16,0.17 0.34,0.36 0.57,0.56 0.23,0.2 0.48,0.39 0.76,0.56 0.28,0.17 0.58,0.31 0.91,0.42 0.32,0.1 0.64,0.16 0.97,0.16 0.83,0 1.5,-0.2 2.03,-0.59 0.53,-0.4 0.79,-0.98 0.79,-1.76 0,-0.44 -0.14,-0.89 -0.43,-1.35 -0.29,-0.46 -0.65,-0.94 -1.08,-1.43 -0.44,-0.49 -0.91,-1 -1.41,-1.53 -0.51,-0.53 -0.97,-1.07 -1.41,-1.63 -0.43,-0.56 -0.79,-1.14 -1.08,-1.73 -0.28,-0.6 -0.43,-1.22 -0.43,-1.86 0,-0.72 0.15,-1.35 0.44,-1.89 0.29,-0.54 0.68,-0.98 1.17,-1.33 0.48,-0.36 1.04,-0.63 1.67,-0.81 0.62,-0.17 1.26,-0.26 1.92,-0.26 0.77,0 1.47,0.07 2.1,0.2 0.63,0.14 1.17,0.35 1.62,0.63 0.45,0.28 0.8,0.63 1.05,1.06 0.24,0.42 0.37,0.91 0.37,1.47 0,0.44 -0.14,0.82 -0.43,1.14 -0.29,0.32 -0.69,0.48 -1.2,0.48 -0.49,0 -0.87,-0.11 -1.13,-0.32 -0.25,-0.21 -0.38,-0.5 -0.38,-0.87 0,-0.24 0.05,-0.43 0.18,-0.56 0.12,-0.14 0.25,-0.25 0.4,-0.34 0.15,-0.08 0.28,-0.16 0.4,-0.22 0.12,-0.06 0.18,-0.15 0.18,-0.25 0,-0.32 -0.17,-0.58 -0.51,-0.76 -0.34,-0.2 -0.79,-0.29 -1.32,-0.29zm13.03 0.11l0 12.68c0,0.61 0.11,1.03 0.34,1.26 0.23,0.24 0.55,0.35 0.94,0.35 0.31,0 0.59,-0.08 0.83,-0.25 0.24,-0.17 0.45,-0.37 0.62,-0.58 0.2,-0.24 0.38,-0.53 0.53,-0.85l0.53 0.24c-0.17,0.37 -0.37,0.77 -0.61,1.2 -0.23,0.44 -0.54,0.84 -0.93,1.22 -0.39,0.37 -0.88,0.68 -1.47,0.93 -0.59,0.25 -1.33,0.38 -2.23,0.38 -0.5,0 -0.98,-0.08 -1.44,-0.22 -0.47,-0.15 -0.88,-0.39 -1.24,-0.71 -0.36,-0.32 -0.65,-0.72 -0.87,-1.2 -0.21,-0.48 -0.33,-1.06 -0.33,-1.73l0 -12.72 -1.92 0 0 -1.24c0.32,0 0.77,-0.08 1.34,-0.25 0.57,-0.17 1.16,-0.44 1.76,-0.83 0.6,-0.39 1.16,-0.91 1.68,-1.56 0.51,-0.66 0.88,-1.46 1.09,-2.42l1.38 0 0 5.06 2.8 0c0.91,0 1.37,-0.15 1.37,-0.46 0,-0.12 -0.06,-0.2 -0.17,-0.24 -0.11,-0.03 -0.24,-0.09 -0.39,-0.15 -0.14,-0.06 -0.27,-0.15 -0.39,-0.26 -0.11,-0.12 -0.17,-0.31 -0.17,-0.57 0,-0.32 0.1,-0.58 0.3,-0.76 0.2,-0.18 0.47,-0.27 0.79,-0.27 0.2,0 0.38,0.04 0.54,0.12 0.15,0.09 0.28,0.2 0.38,0.35 0.1,0.14 0.18,0.31 0.23,0.49 0.06,0.18 0.08,0.37 0.08,0.55 0,0.74 -0.21,1.33 -0.64,1.77 -0.43,0.44 -1.12,0.67 -2.07,0.67l-2.66 0zm4.84 7.55c0,-1.5 0.22,-2.81 0.65,-3.94 0.44,-1.13 1.02,-2.07 1.74,-2.82 0.73,-0.76 1.57,-1.33 2.54,-1.7 0.96,-0.38 1.96,-0.57 3.02,-0.57 1.05,0 2.06,0.17 3.02,0.52 0.96,0.35 1.81,0.89 2.53,1.61 0.73,0.72 1.31,1.63 1.74,2.74 0.44,1.1 0.66,2.41 0.66,3.92 0,1.5 -0.22,2.82 -0.66,3.98 -0.43,1.16 -1.01,2.13 -1.74,2.92 -0.72,0.79 -1.57,1.39 -2.53,1.8 -0.96,0.4 -1.97,0.6 -3.02,0.6 -1.06,0 -2.06,-0.19 -3.02,-0.57 -0.97,-0.39 -1.81,-0.95 -2.54,-1.71 -0.72,-0.76 -1.3,-1.7 -1.74,-2.83 -0.43,-1.14 -0.65,-2.45 -0.65,-3.95zm10.56 -0.17c0,-0.92 -0.03,-1.8 -0.1,-2.66 -0.06,-0.84 -0.18,-1.61 -0.37,-2.27 -0.18,-0.66 -0.44,-1.19 -0.78,-1.59 -0.35,-0.4 -0.8,-0.59 -1.36,-0.59 -0.56,0 -1.02,0.21 -1.36,0.63 -0.34,0.41 -0.61,0.97 -0.79,1.64 -0.18,0.68 -0.3,1.46 -0.36,2.33 -0.05,0.87 -0.08,1.77 -0.08,2.68 0,0.91 0.03,1.81 0.08,2.68 0.06,0.88 0.18,1.66 0.36,2.35 0.18,0.69 0.45,1.24 0.79,1.66 0.34,0.41 0.8,0.62 1.36,0.62 0.56,0 1.01,-0.21 1.36,-0.65 0.34,-0.44 0.6,-1.01 0.78,-1.71 0.19,-0.71 0.31,-1.52 0.37,-2.41 0.07,-0.89 0.1,-1.8 0.1,-2.71z"/>
    <path class="fil0" d="M228.26 17.65c0.44,-0.66 0.9,-1.27 1.39,-1.8 0.21,-0.23 0.43,-0.46 0.67,-0.67 0.24,-0.22 0.49,-0.41 0.75,-0.58 0.26,-0.18 0.52,-0.31 0.8,-0.42 0.27,-0.1 0.55,-0.15 0.82,-0.15 0.58,0 1.04,0.17 1.38,0.52 0.33,0.35 0.49,0.84 0.49,1.47 0,0.39 -0.03,0.76 -0.09,1.13 -0.06,0.35 -0.19,0.79 -0.37,1.31l-0.48 0c-0.07,-0.36 -0.23,-0.65 -0.48,-0.89 -0.25,-0.23 -0.62,-0.35 -1.1,-0.35 -0.35,0 -0.71,0.07 -1.05,0.2 -0.34,0.13 -0.67,0.3 -1,0.49 -0.33,0.19 -0.64,0.4 -0.93,0.63 -0.29,0.24 -0.56,0.45 -0.8,0.66l0 11.14c0,0.15 -0.02,0.33 -0.07,0.53 -0.04,0.21 -0.15,0.4 -0.33,0.59 -0.18,0.18 -0.44,0.34 -0.79,0.47 -0.35,0.13 -0.83,0.19 -1.43,0.19 -0.61,0 -1.09,-0.07 -1.44,-0.21 -0.35,-0.14 -0.61,-0.31 -0.79,-0.51 -0.19,-0.19 -0.3,-0.39 -0.35,-0.6 -0.05,-0.2 -0.07,-0.37 -0.07,-0.5l0 -13.25c0,-0.33 -0.08,-0.62 -0.23,-0.86 -0.16,-0.25 -0.41,-0.37 -0.78,-0.37 -0.2,0 -0.36,0.03 -0.5,0.1 -0.14,0.07 -0.28,0.17 -0.45,0.29l-0.35 -0.43c0.26,-0.22 0.55,-0.43 0.88,-0.64 0.32,-0.21 0.68,-0.4 1.06,-0.56 0.37,-0.16 0.78,-0.29 1.21,-0.4 0.44,-0.1 0.89,-0.15 1.38,-0.15 0.49,0 0.91,0.06 1.26,0.2 0.35,0.13 0.63,0.3 0.86,0.51 0.22,0.21 0.39,0.45 0.52,0.71 0.13,0.27 0.22,0.53 0.29,0.8 0.06,0.27 0.09,0.53 0.11,0.77 0.01,0.25 0.01,0.46 0.01,0.63zm12.21 6.32c0,0.37 0.05,0.77 0.16,1.19 0.12,0.43 0.27,0.86 0.48,1.3 0.2,0.43 0.46,0.85 0.76,1.24 0.31,0.4 0.65,0.75 1.05,1.06 0.39,0.31 0.83,0.55 1.31,0.74 0.48,0.18 1.01,0.27 1.58,0.27 0.4,0 0.77,-0.04 1.12,-0.14 0.34,-0.09 0.66,-0.21 0.96,-0.37 0.29,-0.16 0.58,-0.35 0.85,-0.56 0.28,-0.21 0.56,-0.44 0.83,-0.68l0.43 0.41c-0.26,0.36 -0.6,0.75 -1.01,1.17 -0.42,0.42 -0.91,0.82 -1.5,1.19 -0.58,0.37 -1.26,0.68 -2.04,0.93 -0.78,0.25 -1.66,0.37 -2.66,0.37 -1,0 -1.97,-0.18 -2.91,-0.54 -0.94,-0.36 -1.78,-0.9 -2.52,-1.62 -0.73,-0.72 -1.31,-1.63 -1.75,-2.7 -0.45,-1.08 -0.67,-2.34 -0.67,-3.78 0,-1.04 0.13,-1.99 0.4,-2.86 0.26,-0.87 0.62,-1.66 1.07,-2.35 0.45,-0.7 0.98,-1.32 1.58,-1.84 0.6,-0.53 1.23,-0.96 1.89,-1.32 0.67,-0.34 1.35,-0.61 2.04,-0.79 0.7,-0.17 1.36,-0.26 2,-0.26 0.85,0 1.58,0.09 2.22,0.27 0.62,0.19 1.15,0.43 1.57,0.74 0.41,0.31 0.72,0.67 0.94,1.08 0.2,0.4 0.3,0.83 0.3,1.27 0,0.54 -0.15,1.02 -0.46,1.46 -0.31,0.42 -0.72,0.8 -1.24,1.12l-6.78 4zm3.45 -3.49c0.15,-0.09 0.27,-0.17 0.37,-0.26 0.1,-0.09 0.18,-0.19 0.24,-0.31 0.05,-0.12 0.1,-0.27 0.12,-0.45 0.03,-0.17 0.05,-0.4 0.05,-0.66 0,-0.28 -0.04,-0.6 -0.1,-0.95 -0.06,-0.35 -0.17,-0.68 -0.32,-0.99 -0.15,-0.31 -0.33,-0.56 -0.56,-0.77 -0.23,-0.21 -0.51,-0.31 -0.83,-0.31 -0.41,0 -0.76,0.12 -1.05,0.37 -0.3,0.25 -0.54,0.56 -0.72,0.95 -0.19,0.39 -0.34,0.83 -0.45,1.33 -0.11,0.5 -0.19,1 -0.25,1.51 -0.05,0.5 -0.09,0.98 -0.1,1.44 -0.01,0.47 -0.02,0.86 -0.02,1.18l3.62 -2.08z"/>
   </g>
   <path class="fil1" d="M20.67 100.61c1.32,0 2.64,-0.23 3.92,-0.72 1.28,-0.48 2.43,-1.27 3.43,-2.37 1.01,-1.11 1.82,-2.55 2.45,-4.34 0.64,-1.77 0.94,-3.95 0.94,-6.52 0,-2.77 -0.67,-5.47 -2.04,-8.07 -1.39,-2.6 -3.09,-5.17 -5.15,-7.68 -2.06,-2.54 -4.29,-5.04 -6.69,-7.54 -2.38,-2.48 -4.61,-5.03 -6.67,-7.61 -2.06,-2.59 -3.78,-5.25 -5.15,-8.02 -1.37,-2.76 -2.05,-5.63 -2.05,-8.63 0,-3.01 0.55,-5.71 1.66,-8.14 1.1,-2.42 2.6,-4.48 4.49,-6.19 1.91,-1.7 4.11,-3 6.64,-3.93 2.52,-0.93 5.22,-1.39 8.09,-1.39 3.07,0 5.79,0.32 8.19,0.97 2.38,0.64 4.41,1.52 6.08,2.63 1.67,1.1 2.92,2.4 3.78,3.9 0.86,1.51 1.29,3.09 1.29,4.78 0,0.8 -0.11,1.61 -0.34,2.45 -0.24,0.83 -0.59,1.61 -1.1,2.3 -0.49,0.69 -1.11,1.26 -1.87,1.72 -0.76,0.47 -1.66,0.69 -2.67,0.69 -1.22,0 -2.13,-0.37 -2.7,-1.1 -0.58,-0.74 -1,-1.67 -1.29,-2.75 -0.28,-1.08 -0.52,-2.28 -0.71,-3.58 -0.2,-1.32 -0.52,-2.5 -0.94,-3.6 -0.44,-1.08 -1.08,-2.01 -1.93,-2.73 -0.86,-0.74 -2.11,-1.12 -3.76,-1.12 -0.9,0 -1.78,0.19 -2.66,0.59 -0.86,0.39 -1.65,1 -2.36,1.81 -0.71,0.81 -1.28,1.84 -1.71,3.09 -0.44,1.25 -0.64,2.74 -0.64,4.44 0,2 0.41,3.92 1.24,5.8 0.82,1.89 1.9,3.73 3.25,5.57 1.36,1.82 2.89,3.66 4.63,5.49 1.74,1.82 3.5,3.68 5.29,5.54 1.81,1.87 3.56,3.78 5.3,5.74 1.72,1.96 3.28,4 4.63,6.11 1.35,2.12 2.43,4.33 3.26,6.62 0.83,2.32 1.23,4.75 1.23,7.28 0,3.74 -0.71,7.06 -2.14,9.97 -1.44,2.92 -3.38,5.38 -5.85,7.38 -2.45,1.99 -5.33,3.51 -8.63,4.57 -3.29,1.05 -6.8,1.59 -10.54,1.59 -3.36,0 -6.33,-0.42 -8.93,-1.26 -2.58,-0.85 -4.76,-1.96 -6.55,-3.35 -1.78,-1.38 -3.13,-2.95 -4.04,-4.73 -0.89,-1.75 -1.35,-3.58 -1.35,-5.45 0,-0.8 0.12,-1.64 0.37,-2.55 0.24,-0.91 0.61,-1.74 1.08,-2.5 0.49,-0.76 1.08,-1.4 1.81,-1.91 0.73,-0.51 1.57,-0.76 2.53,-0.76 0.98,0 1.78,0.24 2.4,0.74 0.61,0.49 1.1,1.15 1.45,1.98 0.37,0.83 0.66,1.76 0.9,2.82 0.22,1.05 0.47,2.13 0.74,3.21 0.25,1.1 0.59,2.16 0.98,3.22 0.41,1.05 0.95,2 1.64,2.82 0.69,0.83 1.59,1.49 2.67,1.98 1.1,0.49 2.46,0.74 4.1,0.74zm37.31 -49.82c0,-0.96 -0.22,-1.79 -0.66,-2.5 -0.46,-0.71 -1.2,-1.06 -2.25,-1.06 -0.57,0 -1.04,0.08 -1.43,0.29 -0.41,0.2 -0.83,0.49 -1.3,0.84l-1.03 -1.23c0.76,-0.63 1.6,-1.25 2.55,-1.86 0.93,-0.61 1.96,-1.15 3.04,-1.6 1.08,-0.48 2.26,-0.85 3.51,-1.15 1.25,-0.29 2.57,-0.44 3.95,-0.44 1.49,0 2.75,0.23 3.82,0.69 1.05,0.46 1.94,1.01 2.65,1.66 0.71,0.64 1.23,1.31 1.6,2.02 0.36,0.71 0.58,1.32 0.65,1.81 0.65,-0.91 1.43,-1.76 2.34,-2.52 0.92,-0.76 1.9,-1.42 2.98,-1.96 1.06,-0.54 2.21,-0.96 3.41,-1.26 1.2,-0.29 2.45,-0.44 3.73,-0.44 2.65,0 5.03,0.54 7.18,1.64 2.14,1.08 3.98,2.7 5.52,4.84 1.52,2.15 2.7,4.8 3.53,7.96 0.83,3.17 1.23,6.84 1.23,10.99 0,4.81 -0.49,8.92 -1.5,12.3 -1,3.37 -2.33,6.14 -3.95,8.29 -1.64,2.14 -3.5,3.7 -5.59,4.66 -2.1,0.98 -4.24,1.47 -6.42,1.47 -1.81,0 -3.39,-0.19 -4.76,-0.54 -1.39,-0.37 -2.55,-0.81 -3.55,-1.35 -1,-0.53 -1.81,-1.05 -2.46,-1.61 -0.68,-0.54 -1.2,-0.99 -1.59,-1.35l0 24.14c0,0.43 -0.07,0.94 -0.2,1.53 -0.14,0.59 -0.46,1.17 -0.97,1.71 -0.5,0.56 -1.26,1.01 -2.28,1.42 -0.99,0.39 -2.38,0.59 -4.12,0.59 -1.75,0 -3.12,-0.2 -4.14,-0.63 -1.01,-0.4 -1.77,-0.89 -2.29,-1.48 -0.54,-0.58 -0.86,-1.15 -1,-1.73 -0.13,-0.57 -0.2,-1.04 -0.2,-1.41l0 -62.73zm15.2 31.52c0,0.25 0.12,0.72 0.34,1.38 0.23,0.66 0.59,1.33 1.09,2.03 0.49,0.69 1.13,1.31 1.91,1.86 0.76,0.54 1.72,0.81 2.84,0.81 1.45,0 2.68,-0.56 3.71,-1.66 1.02,-1.1 1.86,-2.6 2.52,-4.51 0.66,-1.89 1.15,-4.1 1.44,-6.62 0.3,-2.53 0.44,-5.22 0.44,-8.09 0,-3.53 -0.19,-6.52 -0.56,-8.95 -0.39,-2.45 -0.93,-4.42 -1.66,-5.93 -0.72,-1.48 -1.6,-2.58 -2.6,-3.26 -1.01,-0.67 -2.14,-1.01 -3.39,-1.01 -0.73,0 -1.45,0.2 -2.18,0.62 -0.73,0.41 -1.37,0.92 -1.94,1.53 -0.59,0.62 -1.05,1.3 -1.42,2.06 -0.36,0.76 -0.54,1.48 -0.54,2.17l0 27.57zm61.51 -14.51c0,-0.81 -0.27,-1.45 -0.8,-1.88 -0.54,-0.42 -1.21,-0.64 -2.02,-0.64 -1.17,0 -2.27,0.27 -3.3,0.8 -1.05,0.52 -1.96,1.3 -2.75,2.33 -0.79,1.01 -1.42,2.28 -1.88,3.78 -0.47,1.5 -0.69,3.24 -0.69,5.22 0,1.91 0.14,3.49 0.42,4.74 0.27,1.25 0.66,2.25 1.14,2.99 0.47,0.75 1.03,1.27 1.65,1.57 0.63,0.29 1.28,0.44 1.98,0.44 0.86,0 1.67,-0.22 2.43,-0.67 0.76,-0.44 1.42,-1.02 1.97,-1.71 0.56,-0.69 1.02,-1.47 1.34,-2.31 0.34,-0.86 0.51,-1.72 0.51,-2.59l0 -12.07zm-7.87 -21.67c-1.14,0 -2.17,0.14 -3.13,0.41 -0.94,0.25 -1.77,0.59 -2.46,0.98 -0.7,0.4 -1.24,0.84 -1.64,1.31 -0.39,0.48 -0.59,0.93 -0.59,1.35 0,0.51 0.25,0.87 0.76,1.07 0.52,0.22 1.08,0.47 1.7,0.74 0.63,0.29 1.2,0.68 1.71,1.2 0.52,0.51 0.77,1.28 0.77,2.35 0,0.69 -0.13,1.32 -0.42,1.91 -0.28,0.57 -0.66,1.08 -1.13,1.52 -0.49,0.45 -1.05,0.79 -1.69,1.04 -0.64,0.26 -1.32,0.37 -2.01,0.37 -1.84,0 -3.32,-0.62 -4.47,-1.87 -1.13,-1.27 -1.71,-2.92 -1.71,-5 0,-2.01 0.52,-3.73 1.59,-5.17 1.05,-1.43 2.43,-2.61 4.12,-3.54 1.71,-0.93 3.63,-1.61 5.78,-2.06 2.14,-0.44 4.28,-0.66 6.43,-0.66 2.57,0 5.02,0.28 7.36,0.84 2.35,0.56 4.41,1.45 6.22,2.67 1.79,1.22 3.22,2.77 4.3,4.64 1.07,1.9 1.61,4.16 1.61,6.84l0 27.95c0,0.31 0.02,0.63 0.05,1 0.03,0.36 0.12,0.69 0.24,0.98 0.13,0.3 0.33,0.54 0.6,0.74 0.26,0.21 0.65,0.31 1.14,0.31 0.59,0 1.14,-0.24 1.65,-0.68 0.51,-0.44 0.96,-0.89 1.37,-1.37l1.23 1.05c-0.49,0.69 -1.08,1.45 -1.77,2.28 -0.71,0.83 -1.54,1.61 -2.54,2.32 -0.99,0.72 -2.14,1.35 -3.46,1.84 -1.31,0.49 -2.82,0.74 -4.51,0.74 -2.07,0 -3.91,-0.63 -5.54,-1.86 -1.6,-1.23 -2.66,-3.14 -3.15,-5.71 -1.07,1.42 -2.17,2.6 -3.3,3.57 -1.13,0.94 -2.29,1.72 -3.49,2.31 -1.19,0.59 -2.38,1.03 -3.58,1.28 -1.2,0.27 -2.42,0.41 -3.63,0.41 -1.59,0 -3.13,-0.25 -4.62,-0.74 -1.48,-0.49 -2.8,-1.29 -3.98,-2.35 -1.17,-1.08 -2.11,-2.47 -2.82,-4.19 -0.71,-1.71 -1.07,-3.8 -1.07,-6.28 0,-3.01 0.61,-5.46 1.8,-7.37 1.18,-1.92 2.75,-3.53 4.67,-4.83 1.93,-1.3 4.12,-2.41 6.57,-3.34 2.47,-0.91 4.98,-1.89 7.55,-2.92 1.91,-0.76 3.31,-1.88 4.19,-3.38 0.88,-1.5 1.3,-3.04 1.3,-4.63 0,-2.45 -0.71,-4.4 -2.14,-5.86 -1.44,-1.47 -3.4,-2.21 -5.86,-2.21zm67.48 13.07c-1.03,0 -1.89,-0.17 -2.58,-0.47 -0.69,-0.32 -1.25,-0.74 -1.67,-1.27 -0.44,-0.52 -0.75,-1.11 -0.95,-1.75 -0.2,-0.65 -0.3,-1.32 -0.3,-2.01 0,-0.88 0.06,-1.74 0.18,-2.57 0.1,-0.83 0.12,-1.57 0.05,-2.23 -0.08,-0.66 -0.34,-1.18 -0.77,-1.57 -0.43,-0.41 -1.19,-0.61 -2.28,-0.61 -1.15,0 -2.37,0.34 -3.65,1 -1.3,0.66 -2.47,1.7 -3.51,3.12 -1.07,1.4 -1.95,3.23 -2.64,5.46 -0.69,2.23 -1.03,4.91 -1.03,8.04 0,3.46 0.32,6.62 0.96,9.47 0.64,2.86 1.61,5.29 2.89,7.3 1.3,2.02 2.89,3.58 4.81,4.67 1.91,1.12 4.16,1.68 6.73,1.68 1.14,0 2.24,-0.14 3.29,-0.41 1.03,-0.27 2.01,-0.62 2.94,-1.08 0.93,-0.47 1.8,-1 2.65,-1.62 0.84,-0.61 1.65,-1.25 2.45,-1.94l1.23 1.18c-0.76,1.03 -1.72,2.14 -2.92,3.36 -1.18,1.22 -2.62,2.36 -4.31,3.45 -1.67,1.06 -3.65,1.95 -5.87,2.66 -2.25,0.71 -4.8,1.07 -7.67,1.07 -2.87,0 -5.68,-0.56 -8.4,-1.66 -2.71,-1.11 -5.13,-2.72 -7.24,-4.83 -2.11,-2.11 -3.8,-4.68 -5.07,-7.68 -1.28,-3.02 -1.91,-6.47 -1.91,-10.32 0,-3.01 0.38,-5.76 1.14,-8.29 0.76,-2.52 1.79,-4.82 3.09,-6.86 1.3,-2.04 2.82,-3.83 4.56,-5.39 1.72,-1.55 3.54,-2.83 5.45,-3.88 1.93,-1.05 3.87,-1.83 5.88,-2.35 1.99,-0.52 3.92,-0.79 5.76,-0.79 2.45,0 4.56,0.28 6.38,0.84 1.81,0.56 3.33,1.3 4.53,2.23 1.2,0.91 2.09,1.98 2.7,3.19 0.59,1.2 0.88,2.45 0.88,3.74 0,0.94 -0.12,1.87 -0.37,2.73 -0.24,0.88 -0.61,1.64 -1.08,2.28 -0.48,0.64 -1.09,1.15 -1.81,1.54 -0.73,0.37 -1.57,0.57 -2.52,0.57zm28.24 11.52c0,1.06 0.15,2.21 0.47,3.45 0.32,1.23 0.76,2.48 1.37,3.73 0.59,1.25 1.32,2.45 2.2,3.58 0.87,1.15 1.87,2.16 3.02,3.06 1.13,0.87 2.4,1.58 3.78,2.12 1.39,0.53 2.91,0.8 4.54,0.8 1.17,0 2.23,-0.14 3.23,-0.41 0.98,-0.27 1.91,-0.62 2.77,-1.08 0.84,-0.47 1.67,-1 2.47,-1.62 0.79,-0.61 1.58,-1.25 2.38,-1.94l1.23 1.18c-0.76,1.03 -1.72,2.14 -2.92,3.36 -1.18,1.22 -2.62,2.36 -4.31,3.45 -1.67,1.06 -3.65,1.95 -5.88,2.66 -2.24,0.71 -4.79,1.07 -7.66,1.07 -2.87,0 -5.68,-0.53 -8.4,-1.56 -2.72,-1.04 -5.13,-2.6 -7.24,-4.67 -2.11,-2.08 -3.8,-4.68 -5.07,-7.77 -1.28,-3.11 -1.91,-6.74 -1.91,-10.9 0,-2.99 0.37,-5.74 1.14,-8.25 0.76,-2.5 1.79,-4.77 3.09,-6.78 1.3,-2.01 2.82,-3.78 4.56,-5.3 1.72,-1.52 3.54,-2.77 5.45,-3.78 1.93,-1 3.87,-1.76 5.88,-2.28 1.99,-0.51 3.92,-0.76 5.76,-0.76 2.45,0 4.56,0.27 6.38,0.79 1.81,0.52 3.33,1.23 4.53,2.13 1.2,0.89 2.09,1.92 2.7,3.09 0.59,1.17 0.88,2.4 0.88,3.68 0,1.56 -0.44,2.94 -1.34,4.19 -0.88,1.23 -2.07,2.31 -3.56,3.24l-19.54 11.52zm9.95 -10.05c0.42,-0.25 0.77,-0.5 1.06,-0.76 0.29,-0.25 0.51,-0.54 0.68,-0.89 0.15,-0.34 0.28,-0.78 0.35,-1.29 0.09,-0.5 0.14,-1.15 0.14,-1.91 0,-0.81 -0.11,-1.73 -0.27,-2.73 -0.19,-1.01 -0.49,-1.96 -0.93,-2.86 -0.43,-0.87 -0.97,-1.62 -1.62,-2.21 -0.66,-0.61 -1.46,-0.89 -2.39,-0.89 -1.18,0 -2.19,0.35 -3.04,1.06 -0.84,0.71 -1.53,1.62 -2.07,2.74 -0.54,1.13 -0.98,2.4 -1.29,3.83 -0.32,1.44 -0.55,2.89 -0.72,4.34 -0.15,1.45 -0.26,2.84 -0.29,4.17 -0.03,1.34 -0.05,2.47 -0.05,3.4l10.44 -6z"/>
  </g>
 </g>
</svg>
