<?xml version="1.0" encoding="UTF-8"?>
<!DOCTYPE svg PUBLIC "-//W3C//DTD SVG 1.1//EN" "http://www.w3.org/Graphics/SVG/1.1/DTD/svg11.dtd">
<!-- Creator: CorelDRAW 2017 -->
<svg xmlns="http://www.w3.org/2000/svg" xml:space="preserve" width="120px" height="44px" version="1.1" style="shape-rendering:geometricPrecision; text-rendering:geometricPrecision; image-rendering:optimizeQuality; fill-rule:evenodd; clip-rule:evenodd"
viewBox="0 0 120 43.9"
 xmlns:xlink="http://www.w3.org/1999/xlink">
 <defs>
  <style type="text/css">
   <![CDATA[
    .fil0 {fill:#96989A;fill-rule:nonzero}
    .fil1 {fill:#4B4B4D;fill-rule:nonzero}
   ]]>
  </style>
 </defs>
 <g id="Layer_x0020_1">
  <metadata id="CorelCorpID_0Corel-Layer"/>
  <path class="fil0" d="M0.13 0.47l8.74 0 0 21.34 13.67 0 0 6.96 -22.41 0 0 -28.3zm24.58 14.17c0,-4.62 1.28,-8.21 3.86,-10.78 2.57,-2.58 6.15,-3.86 10.75,-3.86 4.71,0 8.34,1.26 10.89,3.79 2.55,2.53 3.82,6.07 3.82,10.62 0,3.31 -0.55,6.01 -1.67,8.13 -1.11,2.11 -2.72,3.76 -4.82,4.94 -2.11,1.18 -4.73,1.76 -7.88,1.76 -3.18,0 -5.82,-0.5 -7.92,-1.52 -2.09,-1.02 -3.79,-2.63 -5.08,-4.83 -1.3,-2.19 -1.95,-4.94 -1.95,-8.25zm8.73 0.02c0,2.85 0.53,4.91 1.59,6.15 1.07,1.25 2.52,1.87 4.35,1.87 1.88,0 3.34,-0.61 4.37,-1.83 1.03,-1.22 1.55,-3.41 1.55,-6.58 0,-2.66 -0.54,-4.6 -1.62,-5.83 -1.08,-1.23 -2.53,-1.84 -4.38,-1.84 -1.76,0 -3.19,0.63 -4.25,1.87 -1.08,1.25 -1.61,3.31 -1.61,6.19zm39.52 3.87l0 -5.88 13.51 0 0 12.03c-2.58,1.76 -4.87,2.97 -6.85,3.61 -1.99,0.64 -4.35,0.95 -7.08,0.95 -3.36,0 -6.1,-0.57 -8.21,-1.72 -2.11,-1.13 -3.75,-2.84 -4.92,-5.11 -1.17,-2.26 -1.74,-4.86 -1.74,-7.79 0,-3.09 0.63,-5.77 1.91,-8.05 1.27,-2.28 3.13,-4.01 5.59,-5.2 1.91,-0.92 4.5,-1.37 7.74,-1.37 3.12,0 5.46,0.28 7,0.85 1.56,0.57 2.84,1.44 3.86,2.63 1.02,1.2 1.8,2.7 2.31,4.53l-8.42 1.51c-0.35,-1.07 -0.93,-1.89 -1.76,-2.46 -0.83,-0.57 -1.89,-0.86 -3.18,-0.86 -1.91,0 -3.44,0.67 -4.58,2 -1.14,1.33 -1.7,3.44 -1.7,6.32 0,3.05 0.57,5.24 1.72,6.55 1.15,1.31 2.76,1.97 4.81,1.97 0.98,0 1.91,-0.14 2.79,-0.42 0.89,-0.29 1.9,-0.77 3.05,-1.44l0 -2.65 -5.85 0zm17.58 -3.89c0,-4.62 1.29,-8.21 3.86,-10.78 2.58,-2.58 6.16,-3.86 10.76,-3.86 4.71,0 8.34,1.26 10.89,3.79 2.55,2.53 3.82,6.07 3.82,10.62 0,3.31 -0.56,6.01 -1.67,8.13 -1.11,2.11 -2.73,3.76 -4.83,4.94 -2.1,1.18 -4.73,1.76 -7.87,1.76 -3.19,0 -5.83,-0.5 -7.92,-1.52 -2.09,-1.02 -3.79,-2.63 -5.09,-4.83 -1.29,-2.19 -1.95,-4.94 -1.95,-8.25zm8.74 0.02c0,2.85 0.53,4.91 1.59,6.15 1.07,1.25 2.52,1.87 4.35,1.87 1.88,0 3.34,-0.61 4.37,-1.83 1.03,-1.22 1.54,-3.41 1.54,-6.58 0,-2.66 -0.54,-4.6 -1.61,-5.83 -1.08,-1.23 -2.54,-1.84 -4.38,-1.84 -1.76,0 -3.19,0.63 -4.25,1.87 -1.08,1.25 -1.61,3.31 -1.61,6.19z"/>
  <path class="fil1" d="M5.39 41.38l-1.05 0 -1.26 -2.11c-0.12,-0.2 -0.23,-0.36 -0.34,-0.5 -0.1,-0.14 -0.21,-0.25 -0.33,-0.34 -0.11,-0.09 -0.23,-0.15 -0.36,-0.19 -0.13,-0.04 -0.28,-0.06 -0.45,-0.06l-0.72 0 0 3.2 -0.88 0 0 -7.52 2.24 0c0.33,0 0.63,0.04 0.91,0.13 0.28,0.08 0.52,0.2 0.72,0.37 0.21,0.17 0.37,0.38 0.48,0.63 0.12,0.25 0.18,0.54 0.18,0.87 0,0.27 -0.04,0.51 -0.12,0.72 -0.08,0.22 -0.19,0.42 -0.34,0.59 -0.14,0.17 -0.32,0.32 -0.52,0.44 -0.21,0.12 -0.43,0.21 -0.69,0.28l0 0.02c0.13,0.05 0.24,0.12 0.33,0.19 0.09,0.07 0.18,0.16 0.26,0.25 0.09,0.1 0.17,0.21 0.25,0.34 0.08,0.12 0.18,0.26 0.28,0.43l1.41 2.26zm-4.51 -6.72l0 2.72 1.19 0c0.22,0 0.43,-0.03 0.61,-0.1 0.19,-0.06 0.35,-0.16 0.49,-0.28 0.13,-0.13 0.24,-0.28 0.32,-0.46 0.08,-0.18 0.11,-0.38 0.11,-0.6 0,-0.4 -0.13,-0.72 -0.39,-0.94 -0.26,-0.23 -0.63,-0.34 -1.12,-0.34l-1.21 0zm9.42 4.25l-3.79 0c0.02,0.6 0.18,1.06 0.48,1.38 0.31,0.33 0.73,0.49 1.27,0.49 0.61,0 1.16,-0.2 1.67,-0.6l0 0.81c-0.47,0.34 -1.1,0.51 -1.87,0.51 -0.76,0 -1.36,-0.24 -1.79,-0.73 -0.43,-0.49 -0.65,-1.17 -0.65,-2.06 0,-0.83 0.24,-1.51 0.71,-2.04 0.47,-0.52 1.06,-0.78 1.76,-0.78 0.71,0 1.25,0.22 1.63,0.68 0.39,0.45 0.58,1.08 0.58,1.89l0 0.45zm-0.88 -0.73c0,-0.5 -0.12,-0.88 -0.36,-1.16 -0.23,-0.27 -0.56,-0.41 -0.98,-0.41 -0.41,0 -0.75,0.14 -1.03,0.43 -0.29,0.29 -0.46,0.67 -0.53,1.14l2.9 0zm3.06 2.42l-0.02 0 0 3.24 -0.86 0 0 -7.83 0.86 0 0 0.94 0.02 0c0.42,-0.71 1.04,-1.06 1.86,-1.06 0.69,0 1.23,0.24 1.61,0.72 0.39,0.48 0.58,1.12 0.58,1.93 0,0.89 -0.21,1.61 -0.65,2.15 -0.44,0.54 -1.03,0.81 -1.79,0.81 -0.7,0 -1.23,-0.3 -1.61,-0.9zm-0.02 -2.16l0 0.75c0,0.44 0.14,0.82 0.43,1.13 0.29,0.3 0.65,0.46 1.1,0.46 0.52,0 0.93,-0.2 1.22,-0.6 0.3,-0.4 0.44,-0.95 0.44,-1.66 0,-0.6 -0.13,-1.06 -0.41,-1.4 -0.28,-0.34 -0.65,-0.51 -1.12,-0.51 -0.5,0 -0.9,0.17 -1.2,0.52 -0.31,0.35 -0.46,0.78 -0.46,1.31zm6.31 2.94l-0.86 0 0 -7.95 0.86 0 0 7.95zm5.58 0l-0.86 0 0 -0.84 -0.02 0c-0.38,0.64 -0.93,0.96 -1.65,0.96 -0.54,0 -0.96,-0.14 -1.26,-0.42 -0.3,-0.29 -0.45,-0.66 -0.45,-1.13 0,-1 0.59,-1.59 1.77,-1.75l1.61 -0.22c0,-0.92 -0.37,-1.37 -1.11,-1.37 -0.64,0 -1.23,0.22 -1.75,0.66l0 -0.88c0.53,-0.34 1.14,-0.5 1.82,-0.5 1.26,0 1.9,0.66 1.9,2l0 3.49zm-0.86 -2.72l-1.3 0.18c-0.4,0.06 -0.7,0.15 -0.9,0.3 -0.2,0.14 -0.3,0.39 -0.3,0.75 0,0.26 0.09,0.47 0.28,0.64 0.18,0.17 0.43,0.25 0.74,0.25 0.43,0 0.78,-0.15 1.06,-0.45 0.28,-0.3 0.42,-0.68 0.42,-1.13l0 -0.54zm6.13 2.47c-0.41,0.25 -0.9,0.37 -1.46,0.37 -0.77,0 -1.39,-0.25 -1.86,-0.74 -0.47,-0.5 -0.7,-1.15 -0.7,-1.94 0,-0.88 0.25,-1.59 0.76,-2.13 0.5,-0.54 1.18,-0.8 2.03,-0.8 0.47,0 0.88,0.08 1.24,0.26l0 0.88c-0.4,-0.28 -0.82,-0.42 -1.28,-0.42 -0.54,0 -0.99,0.19 -1.34,0.59 -0.35,0.39 -0.53,0.91 -0.53,1.55 0,0.62 0.16,1.12 0.49,1.48 0.33,0.37 0.78,0.55 1.33,0.55 0.47,0 0.91,-0.16 1.32,-0.47l0 0.82zm5.61 -2.22l-3.79 0c0.02,0.6 0.18,1.06 0.49,1.38 0.3,0.33 0.73,0.49 1.26,0.49 0.61,0 1.16,-0.2 1.67,-0.6l0 0.81c-0.47,0.34 -1.09,0.51 -1.87,0.51 -0.76,0 -1.35,-0.24 -1.79,-0.73 -0.43,-0.49 -0.65,-1.17 -0.65,-2.06 0,-0.83 0.24,-1.51 0.71,-2.04 0.48,-0.52 1.07,-0.78 1.77,-0.78 0.7,0 1.24,0.22 1.63,0.68 0.38,0.45 0.57,1.08 0.57,1.89l0 0.45zm-0.88 -0.73c0,-0.5 -0.12,-0.88 -0.36,-1.16 -0.23,-0.27 -0.56,-0.41 -0.98,-0.41 -0.4,0 -0.75,0.14 -1.03,0.43 -0.28,0.29 -0.46,0.67 -0.53,1.14l2.9 0zm5.56 -3.53c-0.15,0 -0.28,-0.05 -0.39,-0.16 -0.11,-0.1 -0.16,-0.24 -0.16,-0.4 0,-0.16 0.05,-0.29 0.16,-0.4 0.11,-0.1 0.24,-0.16 0.39,-0.16 0.16,0 0.29,0.06 0.4,0.16 0.11,0.11 0.17,0.24 0.17,0.4 0,0.16 -0.06,0.29 -0.17,0.4 -0.11,0.1 -0.24,0.16 -0.4,0.16zm0.42 6.73l-0.86 0 0 -5.37 0.86 0 0 5.37zm6.2 0l-0.87 0 0 -3.06c0,-1.14 -0.41,-1.71 -1.24,-1.71 -0.43,0 -0.79,0.16 -1.07,0.48 -0.28,0.33 -0.42,0.73 -0.42,1.23l0 3.06 -0.86 0 0 -5.37 0.86 0 0 0.89 0.02 0c0.41,-0.68 0.99,-1.01 1.76,-1.01 0.59,0 1.04,0.19 1.35,0.56 0.31,0.38 0.47,0.93 0.47,1.65l0 3.28zm4.32 -0.31l0 -1.04c0.12,0.11 0.26,0.2 0.42,0.29 0.17,0.08 0.35,0.15 0.53,0.21 0.18,0.06 0.37,0.1 0.55,0.13 0.19,0.03 0.36,0.05 0.51,0.05 0.55,0 0.95,-0.1 1.22,-0.3 0.27,-0.2 0.4,-0.49 0.4,-0.87 0,-0.2 -0.05,-0.38 -0.13,-0.53 -0.09,-0.15 -0.22,-0.28 -0.37,-0.41 -0.16,-0.12 -0.35,-0.24 -0.56,-0.36 -0.22,-0.11 -0.45,-0.23 -0.7,-0.35 -0.26,-0.14 -0.5,-0.27 -0.73,-0.41 -0.23,-0.13 -0.42,-0.28 -0.59,-0.45 -0.17,-0.16 -0.3,-0.35 -0.4,-0.56 -0.09,-0.2 -0.14,-0.45 -0.14,-0.73 0,-0.34 0.07,-0.64 0.22,-0.89 0.15,-0.25 0.35,-0.46 0.6,-0.63 0.24,-0.16 0.52,-0.28 0.83,-0.36 0.31,-0.08 0.63,-0.12 0.96,-0.12 0.74,0 1.28,0.09 1.62,0.26l0 1c-0.45,-0.31 -1.02,-0.47 -1.71,-0.47 -0.19,0 -0.38,0.02 -0.58,0.06 -0.19,0.04 -0.36,0.11 -0.51,0.2 -0.15,0.09 -0.27,0.21 -0.37,0.35 -0.09,0.14 -0.14,0.32 -0.14,0.53 0,0.19 0.04,0.35 0.11,0.49 0.07,0.14 0.18,0.27 0.31,0.39 0.14,0.11 0.32,0.22 0.52,0.33 0.2,0.11 0.43,0.23 0.69,0.36 0.27,0.13 0.52,0.27 0.77,0.42 0.24,0.14 0.45,0.31 0.63,0.48 0.18,0.18 0.32,0.38 0.43,0.59 0.11,0.22 0.16,0.47 0.16,0.75 0,0.37 -0.07,0.68 -0.22,0.94 -0.14,0.26 -0.34,0.47 -0.58,0.63 -0.25,0.16 -0.53,0.27 -0.85,0.34 -0.33,0.08 -0.66,0.11 -1.02,0.11 -0.12,0 -0.27,-0.01 -0.44,-0.03 -0.17,-0.02 -0.35,-0.04 -0.54,-0.08 -0.18,-0.04 -0.35,-0.08 -0.51,-0.14 -0.16,-0.05 -0.29,-0.11 -0.39,-0.18zm8.08 0.25c-0.21,0.11 -0.47,0.17 -0.8,0.17 -0.94,0 -1.41,-0.52 -1.41,-1.57l0 -3.18 -0.93 0 0 -0.73 0.93 0 0 -1.31 0.86 -0.28 0 1.59 1.35 0 0 0.73 -1.35 0 0 3.03c0,0.36 0.06,0.61 0.18,0.77 0.12,0.15 0.32,0.23 0.61,0.23 0.21,0 0.4,-0.06 0.56,-0.18l0 0.73zm3.39 0.18c-0.8,0 -1.43,-0.25 -1.9,-0.75 -0.48,-0.5 -0.71,-1.17 -0.71,-1.99 0,-0.91 0.24,-1.61 0.74,-2.12 0.49,-0.5 1.15,-0.75 1.99,-0.75 0.8,0 1.43,0.24 1.88,0.73 0.44,0.5 0.67,1.18 0.67,2.05 0,0.86 -0.24,1.54 -0.73,2.06 -0.48,0.51 -1.13,0.77 -1.94,0.77zm0.06 -4.89c-0.55,0 -0.99,0.19 -1.31,0.56 -0.32,0.38 -0.48,0.89 -0.48,1.56 0,0.63 0.16,1.13 0.48,1.5 0.33,0.36 0.76,0.55 1.31,0.55 0.55,0 0.98,-0.18 1.28,-0.54 0.3,-0.36 0.45,-0.87 0.45,-1.54 0,-0.67 -0.15,-1.18 -0.45,-1.55 -0.3,-0.36 -0.73,-0.54 -1.28,-0.54zm6.78 0.27c-0.15,-0.11 -0.37,-0.17 -0.65,-0.17 -0.37,0 -0.67,0.17 -0.92,0.52 -0.25,0.34 -0.37,0.81 -0.37,1.41l0 2.74 -0.86 0 0 -5.37 0.86 0 0 1.11 0.02 0c0.12,-0.38 0.31,-0.67 0.56,-0.89 0.25,-0.21 0.54,-0.31 0.85,-0.31 0.22,0 0.39,0.02 0.51,0.07l0 0.89zm5.24 2.03l-3.78 0c0.01,0.6 0.17,1.06 0.48,1.38 0.31,0.33 0.73,0.49 1.27,0.49 0.6,0 1.16,-0.2 1.66,-0.6l0 0.81c-0.47,0.34 -1.09,0.51 -1.87,0.51 -0.76,0 -1.35,-0.24 -1.78,-0.73 -0.44,-0.49 -0.66,-1.17 -0.66,-2.06 0,-0.83 0.24,-1.51 0.71,-2.04 0.48,-0.52 1.07,-0.78 1.77,-0.78 0.7,0 1.24,0.22 1.63,0.68 0.38,0.45 0.57,1.08 0.57,1.89l0 0.45zm-0.88 -0.73c0,-0.5 -0.12,-0.88 -0.35,-1.16 -0.24,-0.27 -0.57,-0.41 -0.99,-0.41 -0.4,0 -0.75,0.14 -1.03,0.43 -0.28,0.29 -0.46,0.67 -0.52,1.14l2.89 0zm12.9 3.2l-0.88 0 0 -5.04c0,-0.4 0.03,-0.89 0.08,-1.47l-0.02 0c-0.09,0.34 -0.16,0.58 -0.23,0.73l-2.57 5.78 -0.43 0 -2.56 -5.74c-0.07,-0.16 -0.15,-0.42 -0.22,-0.77l-0.02 0c0.02,0.3 0.04,0.8 0.04,1.48l0 5.03 -0.85 0 0 -7.52 1.16 0 2.31 5.24c0.18,0.4 0.29,0.7 0.34,0.9l0.03 0c0.15,-0.41 0.28,-0.72 0.37,-0.92l2.35 -5.22 1.1 0 0 7.52zm5.7 0l-0.86 0 0 -0.84 -0.02 0c-0.37,0.64 -0.92,0.96 -1.65,0.96 -0.54,0 -0.95,-0.14 -1.26,-0.42 -0.3,-0.29 -0.45,-0.66 -0.45,-1.13 0,-1 0.59,-1.59 1.77,-1.75l1.61 -0.22c0,-0.92 -0.37,-1.37 -1.11,-1.37 -0.64,0 -1.22,0.22 -1.74,0.66l0 -0.88c0.52,-0.34 1.13,-0.5 1.82,-0.5 1.26,0 1.89,0.66 1.89,2l0 3.49zm-0.86 -2.72l-1.29 0.18c-0.4,0.06 -0.7,0.15 -0.9,0.3 -0.21,0.14 -0.31,0.39 -0.31,0.75 0,0.26 0.09,0.47 0.28,0.64 0.19,0.17 0.44,0.25 0.75,0.25 0.42,0 0.78,-0.15 1.05,-0.45 0.28,-0.3 0.42,-0.68 0.42,-1.13l0 -0.54zm6.93 2.72l-0.86 0 0 -3.06c0,-1.14 -0.41,-1.71 -1.24,-1.71 -0.43,0 -0.79,0.16 -1.07,0.48 -0.28,0.33 -0.42,0.73 -0.42,1.23l0 3.06 -0.86 0 0 -5.37 0.86 0 0 0.89 0.02 0c0.4,-0.68 0.99,-1.01 1.76,-1.01 0.59,0 1.04,0.19 1.35,0.56 0.31,0.38 0.46,0.93 0.46,1.65l0 3.28zm5.46 0l-0.86 0 0 -0.84 -0.02 0c-0.37,0.64 -0.92,0.96 -1.65,0.96 -0.53,0 -0.95,-0.14 -1.25,-0.42 -0.31,-0.29 -0.46,-0.66 -0.46,-1.13 0,-1 0.59,-1.59 1.78,-1.75l1.6 -0.22c0,-0.92 -0.37,-1.37 -1.1,-1.37 -0.65,0 -1.23,0.22 -1.75,0.66l0 -0.88c0.53,-0.34 1.13,-0.5 1.82,-0.5 1.26,0 1.89,0.66 1.89,2l0 3.49zm-0.86 -2.72l-1.29 0.18c-0.4,0.06 -0.7,0.15 -0.9,0.3 -0.2,0.14 -0.31,0.39 -0.31,0.75 0,0.26 0.1,0.47 0.29,0.64 0.18,0.17 0.43,0.25 0.74,0.25 0.43,0 0.78,-0.15 1.06,-0.45 0.28,-0.3 0.41,-0.68 0.41,-1.13l0 -0.54zm7.06 2.29c0,1.97 -0.94,2.95 -2.83,2.95 -0.66,0 -1.24,-0.12 -1.74,-0.38l0 -0.85c0.61,0.33 1.18,0.5 1.73,0.5 1.32,0 1.98,-0.71 1.98,-2.11l0 -0.59 -0.02 0c-0.41,0.69 -1.02,1.03 -1.84,1.03 -0.67,0 -1.21,-0.24 -1.61,-0.71 -0.41,-0.48 -0.62,-1.12 -0.62,-1.92 0,-0.92 0.22,-1.64 0.66,-2.18 0.44,-0.54 1.04,-0.8 1.8,-0.8 0.73,0 1.26,0.29 1.61,0.86l0.02 0 0 -0.74 0.86 0 0 4.94zm-0.86 -2l0 -0.79c0,-0.43 -0.14,-0.79 -0.43,-1.1 -0.29,-0.3 -0.65,-0.45 -1.08,-0.45 -0.53,0 -0.94,0.19 -1.24,0.58 -0.31,0.38 -0.46,0.92 -0.46,1.62 0,0.6 0.15,1.07 0.44,1.43 0.29,0.36 0.67,0.54 1.14,0.54 0.48,0 0.88,-0.17 1.18,-0.51 0.3,-0.35 0.45,-0.79 0.45,-1.32zm6.91 -0.04l-3.79 0c0.02,0.6 0.18,1.06 0.49,1.38 0.3,0.33 0.73,0.49 1.26,0.49 0.61,0 1.16,-0.2 1.67,-0.6l0 0.81c-0.47,0.34 -1.1,0.51 -1.87,0.51 -0.76,0 -1.35,-0.24 -1.79,-0.73 -0.43,-0.49 -0.65,-1.17 -0.65,-2.06 0,-0.83 0.24,-1.51 0.71,-2.04 0.48,-0.52 1.07,-0.78 1.77,-0.78 0.7,0 1.24,0.22 1.63,0.68 0.38,0.45 0.57,1.08 0.57,1.89l0 0.45zm-0.88 -0.73c0,-0.5 -0.12,-0.88 -0.36,-1.16 -0.23,-0.27 -0.56,-0.41 -0.98,-0.41 -0.4,0 -0.75,0.14 -1.03,0.43 -0.28,0.29 -0.46,0.67 -0.53,1.14l2.9 0zm4.98 -1.3c-0.15,-0.11 -0.37,-0.17 -0.65,-0.17 -0.37,0 -0.67,0.17 -0.92,0.52 -0.25,0.34 -0.37,0.81 -0.37,1.41l0 2.74 -0.86 0 0 -5.37 0.86 0 0 1.11 0.02 0c0.12,-0.38 0.31,-0.67 0.56,-0.89 0.25,-0.21 0.54,-0.31 0.85,-0.31 0.22,0 0.39,0.02 0.51,0.07l0 0.89z"/>
 </g>
</svg>
